STARTFONT 2.1
FONT -FontForge-AnonymousProLHQwattash-Book-R-Normal--21-150-100-100-P-109-ISO10646-1
SIZE 15 100 100
FONTBOUNDINGBOX 14 24 -2 -5
COMMENT "Generated by fontforge, http://fontforge.sourceforge.net"
COMMENT "Copyright (c) Mark Simonson 2009-2010. All rights reserved."
STARTPROPERTIES 40
FOUNDRY "FontForge"
FAMILY_NAME "AnonymousProLHQwattash"
WEIGHT_NAME "Book"
SLANT "R"
SETWIDTH_NAME "Normal"
ADD_STYLE_NAME ""
PIXEL_SIZE 21
POINT_SIZE 150
RESOLUTION_X 100
RESOLUTION_Y 100
SPACING "P"
AVERAGE_WIDTH 109
CHARSET_REGISTRY "ISO10646"
CHARSET_ENCODING "1"
FONTNAME_REGISTRY ""
CHARSET_COLLECTIONS "ASCII ISOLatin1Encoding ISO8859-2 ISO8859-5 ISO8859-7 ISO8859-9 ISO8859-4 ISO10646-1"
FONT_NAME "AnonymousProLHQwattash"
FACE_NAME "Anonymous Pro qwattash patch with adjusted line height"
COPYRIGHT "Copyright (c) Mark Simonson 2009-2010. All rights reserved."
FONT_VERSION "1.002"
FONT_ASCENT 16
FONT_DESCENT 5
UNDERLINE_POSITION -2
UNDERLINE_THICKNESS 2
X_HEIGHT 8
CAP_HEIGHT 12
DEFAULT_CHAR 1
RAW_ASCENT 779
RAW_DESCENT 220
NORM_SPACE 11
RELATIVE_WEIGHT 40
RELATIVE_SETWIDTH 50
SUPERSCRIPT_X 0
SUPERSCRIPT_Y 9
SUPERSCRIPT_SIZE 13
SUBSCRIPT_X 0
SUBSCRIPT_Y 2
SUBSCRIPT_SIZE 13
AVG_LOWERCASE_WIDTH 110
AVG_UPPERCASE_WIDTH 109
ENDPROPERTIES
CHARS 630
STARTCHAR .null.dup1
ENCODING 0
SWIDTH 520 0
DWIDTH 11 0
BBX 1 1 0 0
BITMAP
00
ENDCHAR
STARTCHAR nonmarkingreturn
ENCODING 13
SWIDTH 520 0
DWIDTH 11 0
BBX 1 1 0 0
BITMAP
00
ENDCHAR
STARTCHAR space
ENCODING 32
SWIDTH 520 0
DWIDTH 11 0
BBX 1 1 0 0
BITMAP
00
ENDCHAR
STARTCHAR exclam
ENCODING 33
SWIDTH 520 0
DWIDTH 11 0
BBX 1 13 4 0
BITMAP
80
80
80
80
80
80
80
80
80
00
00
80
80
ENDCHAR
STARTCHAR quotedbl
ENCODING 34
SWIDTH 520 0
DWIDTH 11 0
BBX 5 5 2 8
BITMAP
D8
C8
88
88
88
ENDCHAR
STARTCHAR numbersign
ENCODING 35
SWIDTH 520 0
DWIDTH 11 0
BBX 9 9 0 0
BITMAP
2200
2200
FF80
2200
2200
2200
FF80
2200
2200
ENDCHAR
STARTCHAR dollar
ENCODING 36
SWIDTH 520 0
DWIDTH 11 0
BBX 9 17 0 -2
BITMAP
0800
0800
3E00
6900
4880
4900
6800
3800
0E00
0B00
0880
8880
C880
6900
3E00
0800
0800
ENDCHAR
STARTCHAR percent
ENCODING 37
SWIDTH 520 0
DWIDTH 11 0
BBX 9 13 0 0
BITMAP
7080
8980
8900
8A00
7600
0400
0800
1800
1300
2680
6480
4480
8300
ENDCHAR
STARTCHAR ampersand
ENCODING 38
SWIDTH 520 0
DWIDTH 11 0
BBX 9 13 0 0
BITMAP
7800
C400
8400
8400
8C00
7800
6000
F180
9900
8F00
8600
8700
7980
ENDCHAR
STARTCHAR quotesingle
ENCODING 39
SWIDTH 520 0
DWIDTH 11 0
BBX 1 5 4 8
BITMAP
80
80
80
80
80
ENDCHAR
STARTCHAR parenleft
ENCODING 40
SWIDTH 520 0
DWIDTH 11 0
BBX 5 19 2 -4
BITMAP
10
38
20
40
40
80
80
80
80
80
80
80
80
80
40
40
20
30
18
ENDCHAR
STARTCHAR parenright
ENCODING 41
SWIDTH 520 0
DWIDTH 11 0
BBX 5 19 2 -4
BITMAP
40
E0
20
10
10
08
08
08
08
08
08
08
08
08
10
10
20
60
C0
ENDCHAR
STARTCHAR asterisk
ENCODING 42
SWIDTH 520 0
DWIDTH 11 0
BBX 9 9 0 0
BITMAP
0800
0800
C980
3E00
0800
3E00
C980
0800
0800
ENDCHAR
STARTCHAR plus
ENCODING 43
SWIDTH 520 0
DWIDTH 11 0
BBX 9 9 0 0
BITMAP
0800
0800
0800
0800
FF80
0800
0800
0800
0800
ENDCHAR
STARTCHAR comma
ENCODING 44
SWIDTH 520 0
DWIDTH 11 0
BBX 4 6 2 -4
BITMAP
30
20
60
40
40
C0
ENDCHAR
STARTCHAR hyphen
ENCODING 45
SWIDTH 520 0
DWIDTH 11 0
BBX 9 1 0 4
BITMAP
FF80
ENDCHAR
STARTCHAR period
ENCODING 46
SWIDTH 520 0
DWIDTH 11 0
BBX 1 2 4 0
BITMAP
80
80
ENDCHAR
STARTCHAR slash
ENCODING 47
SWIDTH 520 0
DWIDTH 11 0
BBX 9 15 0 -2
BITMAP
0080
0100
0100
0200
0200
0400
0400
0800
0800
1000
3000
2000
6000
4000
C000
ENDCHAR
STARTCHAR zero
ENCODING 48
SWIDTH 520 0
DWIDTH 11 0
BBX 10 13 0 0
BITMAP
1E00
2100
4080
81C0
8340
8640
8C40
9840
B040
E040
4080
6100
1E00
ENDCHAR
STARTCHAR one
ENCODING 49
SWIDTH 520 0
DWIDTH 11 0
BBX 7 13 0 0
BITMAP
08
08
18
38
E8
88
08
08
08
08
08
08
3E
ENDCHAR
STARTCHAR two
ENCODING 50
SWIDTH 520 0
DWIDTH 10 0
BBX 8 13 0 0
BITMAP
3C
42
81
81
01
03
06
0E
1C
39
71
E1
FF
ENDCHAR
STARTCHAR three
ENCODING 51
SWIDTH 520 0
DWIDTH 11 0
BBX 8 13 1 0
BITMAP
3C
42
81
81
01
02
0C
02
01
81
81
C2
3C
ENDCHAR
STARTCHAR four
ENCODING 52
SWIDTH 520 0
DWIDTH 11 0
BBX 9 13 0 0
BITMAP
0600
0600
0A00
1A00
1200
2200
6200
4200
FF80
0200
0200
0200
0F80
ENDCHAR
STARTCHAR five
ENCODING 53
SWIDTH 520 0
DWIDTH 11 0
BBX 9 13 0 0
BITMAP
FF00
8000
8000
8000
BE00
C300
0080
0080
0080
C080
4080
6100
3E00
ENDCHAR
STARTCHAR six
ENCODING 54
SWIDTH 520 0
DWIDTH 11 0
BBX 9 13 0 0
BITMAP
1E00
6100
4000
8000
BE00
E100
C080
8080
8080
8080
4080
4100
3E00
ENDCHAR
STARTCHAR seven
ENCODING 55
SWIDTH 520 0
DWIDTH 11 0
BBX 9 13 0 0
BITMAP
FF80
8100
8100
8200
0400
0400
0400
0800
0800
0800
0800
0800
0800
ENDCHAR
STARTCHAR eight
ENCODING 56
SWIDTH 520 0
DWIDTH 11 0
BBX 10 13 0 0
BITMAP
3E00
4100
8080
8080
8080
4100
3E00
6180
8040
8040
8040
40C0
3F00
ENDCHAR
STARTCHAR nine
ENCODING 57
SWIDTH 520 0
DWIDTH 11 0
BBX 9 13 0 0
BITMAP
3C00
4300
8100
8080
8080
8080
8080
4180
3E80
0080
0100
4200
3C00
ENDCHAR
STARTCHAR colon
ENCODING 58
SWIDTH 520 0
DWIDTH 11 0
BBX 1 9 4 0
BITMAP
80
80
00
00
00
00
00
80
80
ENDCHAR
STARTCHAR semicolon
ENCODING 59
SWIDTH 520 0
DWIDTH 11 0
BBX 4 13 2 -4
BITMAP
20
20
00
00
00
00
00
30
20
60
40
40
C0
ENDCHAR
STARTCHAR less
ENCODING 60
SWIDTH 520 0
DWIDTH 11 0
BBX 6 10 2 0
BITMAP
08
1C
30
60
C0
C0
60
30
18
0C
ENDCHAR
STARTCHAR equal
ENCODING 61
SWIDTH 520 0
DWIDTH 11 0
BBX 9 5 0 2
BITMAP
FF80
0000
0000
0000
FF80
ENDCHAR
STARTCHAR greater
ENCODING 62
SWIDTH 520 0
DWIDTH 11 0
BBX 6 10 1 0
BITMAP
40
E0
30
18
0C
0C
18
30
60
C0
ENDCHAR
STARTCHAR question
ENCODING 63
SWIDTH 520 0
DWIDTH 11 0
BBX 7 13 2 0
BITMAP
3C
42
C2
02
04
0C
10
30
20
00
00
20
20
ENDCHAR
STARTCHAR at
ENCODING 64
SWIDTH 520 0
DWIDTH 11 0
BBX 9 13 0 0
BITMAP
3E00
4100
4100
9E80
A280
A280
A280
A280
A680
9B00
4000
6100
3E00
ENDCHAR
STARTCHAR A
ENCODING 65
SWIDTH 520 0
DWIDTH 11 0
BBX 11 13 -1 0
BITMAP
0600
0E00
0A00
0B00
1900
1100
1180
3080
3F80
20C0
6040
4040
C060
ENDCHAR
STARTCHAR B
ENCODING 66
SWIDTH 520 0
DWIDTH 10 0
BBX 7 13 1 0
BITMAP
FC
86
82
82
82
84
F8
84
82
82
82
86
FC
ENDCHAR
STARTCHAR C
ENCODING 67
SWIDTH 520 0
DWIDTH 11 0
BBX 9 13 0 0
BITMAP
1E80
6180
4080
8080
8000
8000
8000
8000
8000
8080
4180
6100
1E00
ENDCHAR
STARTCHAR D
ENCODING 68
SWIDTH 520 0
DWIDTH 11 0
BBX 10 13 0 0
BITMAP
FE00
8100
8080
8040
8040
8040
8040
8040
8040
8040
8080
8100
FE00
ENDCHAR
STARTCHAR E
ENCODING 69
SWIDTH 520 0
DWIDTH 11 0
BBX 8 13 1 0
BITMAP
FF
80
80
80
80
80
FC
80
80
80
80
80
FF
ENDCHAR
STARTCHAR F
ENCODING 70
SWIDTH 520 0
DWIDTH 11 0
BBX 8 13 1 0
BITMAP
FF
80
80
80
80
80
FC
80
80
80
80
80
80
ENDCHAR
STARTCHAR G
ENCODING 71
SWIDTH 520 0
DWIDTH 11 0
BBX 9 13 0 0
BITMAP
1E80
6180
4080
8080
8000
8000
8780
8080
8180
8180
4100
4300
3C00
ENDCHAR
STARTCHAR H
ENCODING 72
SWIDTH 520 0
DWIDTH 11 0
BBX 9 13 0 0
BITMAP
8080
8080
8080
8080
8080
8080
FF80
8080
8080
8080
8080
8080
8080
ENDCHAR
STARTCHAR I
ENCODING 73
SWIDTH 520 0
DWIDTH 11 0
BBX 5 13 2 0
BITMAP
F8
20
20
20
20
20
20
20
20
20
20
20
F8
ENDCHAR
STARTCHAR J
ENCODING 74
SWIDTH 520 0
DWIDTH 11 0
BBX 8 13 0 0
BITMAP
01
01
01
01
01
01
01
01
01
81
81
42
3C
ENDCHAR
STARTCHAR K
ENCODING 75
SWIDTH 520 0
DWIDTH 11 0
BBX 8 13 1 0
BITMAP
83
86
8C
98
90
A0
F0
D0
88
8C
86
82
83
ENDCHAR
STARTCHAR L
ENCODING 76
SWIDTH 520 0
DWIDTH 11 0
BBX 8 13 1 0
BITMAP
80
80
80
80
80
80
80
80
80
80
80
80
FF
ENDCHAR
STARTCHAR M
ENCODING 77
SWIDTH 520 0
DWIDTH 11 0
BBX 9 13 0 0
BITMAP
C180
C180
E380
A280
B680
B680
9480
9C80
8880
8080
8080
8080
8080
ENDCHAR
STARTCHAR N
ENCODING 78
SWIDTH 520 0
DWIDTH 11 0
BBX 9 13 0 0
BITMAP
C080
E080
F080
B080
B880
9880
9C80
8C80
8680
8680
8380
8380
8180
ENDCHAR
STARTCHAR O
ENCODING 79
SWIDTH 520 0
DWIDTH 11 0
BBX 10 13 0 0
BITMAP
1E00
2100
4080
8040
8040
8040
8040
8040
8040
8040
4080
6100
1E00
ENDCHAR
STARTCHAR P
ENCODING 80
SWIDTH 520 0
DWIDTH 11 0
BBX 9 13 0 0
BITMAP
FE00
8100
8080
8080
8080
8100
FE00
8000
8000
8000
8000
8000
8000
ENDCHAR
STARTCHAR Q
ENCODING 81
SWIDTH 520 0
DWIDTH 11 0
BBX 10 17 0 -4
BITMAP
1E00
2100
4080
8040
8040
8040
8040
8040
8040
8040
4080
2180
1F00
0400
0400
0600
03C0
ENDCHAR
STARTCHAR R
ENCODING 82
SWIDTH 520 0
DWIDTH 11 0
BBX 9 13 0 0
BITMAP
FE00
8100
8080
8080
8080
8100
FE00
9C00
8C00
8600
8600
8300
8180
ENDCHAR
STARTCHAR S
ENCODING 83
SWIDTH 520 0
DWIDTH 10 0
BBX 8 13 0 0
BITMAP
3D
43
81
81
80
60
18
06
01
81
81
C2
BC
ENDCHAR
STARTCHAR T
ENCODING 84
SWIDTH 520 0
DWIDTH 11 0
BBX 9 13 0 0
BITMAP
FF80
8880
8880
8880
0800
0800
0800
0800
0800
0800
0800
0800
3E00
ENDCHAR
STARTCHAR U
ENCODING 85
SWIDTH 520 0
DWIDTH 11 0
BBX 9 13 0 0
BITMAP
8080
8080
8080
8080
8080
8080
8080
8080
8080
8080
8080
4100
3E00
ENDCHAR
STARTCHAR V
ENCODING 86
SWIDTH 520 0
DWIDTH 11 0
BBX 11 13 -1 0
BITMAP
C060
4040
60C0
20C0
2080
3080
1180
1100
1900
0B00
0A00
0E00
0E00
ENDCHAR
STARTCHAR W
ENCODING 87
SWIDTH 520 0
DWIDTH 11 0
BBX 11 13 -1 0
BITMAP
C060
4040
4040
4040
6440
64C0
2EC0
2A80
2A80
2A80
3A80
3980
1180
ENDCHAR
STARTCHAR X
ENCODING 88
SWIDTH 520 0
DWIDTH 11 0
BBX 9 13 0 0
BITMAP
F780
6300
2200
3600
1400
1C00
0800
1C00
1400
3600
2200
6300
E380
ENDCHAR
STARTCHAR Y
ENCODING 89
SWIDTH 520 0
DWIDTH 11 0
BBX 9 13 0 0
BITMAP
F780
6300
2200
2200
1400
1400
0800
0800
0800
0800
0800
0800
3E00
ENDCHAR
STARTCHAR Z
ENCODING 90
SWIDTH 520 0
DWIDTH 11 0
BBX 9 13 0 0
BITMAP
FF80
8180
8300
8600
0600
0C00
1800
1800
3000
2080
6080
C080
FF80
ENDCHAR
STARTCHAR bracketleft
ENCODING 91
SWIDTH 520 0
DWIDTH 11 0
BBX 4 19 4 -4
BITMAP
F0
80
80
80
80
80
80
80
80
80
80
80
80
80
80
80
80
80
F0
ENDCHAR
STARTCHAR backslash
ENCODING 92
SWIDTH 520 0
DWIDTH 11 0
BBX 9 15 1 -2
BITMAP
C000
4000
6000
2000
3000
1000
1800
0800
0C00
0400
0600
0200
0100
0100
0080
ENDCHAR
STARTCHAR bracketright
ENCODING 93
SWIDTH 520 0
DWIDTH 11 0
BBX 4 19 2 -4
BITMAP
F0
10
10
10
10
10
10
10
10
10
10
10
10
10
10
10
10
10
F0
ENDCHAR
STARTCHAR asciicircum
ENCODING 94
SWIDTH 520 0
DWIDTH 11 0
BBX 9 8 0 5
BITMAP
1C00
1C00
1600
3200
2300
6300
4100
C180
ENDCHAR
STARTCHAR underscore
ENCODING 95
SWIDTH 520 0
DWIDTH 11 0
BBX 9 1 0 -2
BITMAP
FF80
ENDCHAR
STARTCHAR grave
ENCODING 96
SWIDTH 520 0
DWIDTH 11 0
BBX 5 3 2 10
BITMAP
40
E0
18
ENDCHAR
STARTCHAR a
ENCODING 97
SWIDTH 520 0
DWIDTH 11 0
BBX 9 9 0 0
BITMAP
3F00
6180
0080
0080
3F80
C080
8080
8380
7C80
ENDCHAR
STARTCHAR b
ENCODING 98
SWIDTH 520 0
DWIDTH 11 0
BBX 9 13 0 0
BITMAP
8000
8000
8000
8000
BE00
C100
8080
8080
8080
8080
8080
C100
BE00
ENDCHAR
STARTCHAR c
ENCODING 99
SWIDTH 520 0
DWIDTH 11 0
BBX 9 9 0 0
BITMAP
3E80
4180
8080
8080
8000
8000
8000
4180
3F00
ENDCHAR
STARTCHAR d
ENCODING 100
SWIDTH 520 0
DWIDTH 11 0
BBX 9 13 0 0
BITMAP
0380
0080
0080
0080
1E80
6180
8080
8080
8080
8080
8080
4180
3E80
ENDCHAR
STARTCHAR e
ENCODING 101
SWIDTH 520 0
DWIDTH 11 0
BBX 9 9 0 0
BITMAP
3E00
6100
C180
8080
FF80
8000
C000
6180
3E00
ENDCHAR
STARTCHAR f
ENCODING 102
SWIDTH 520 0
DWIDTH 11 0
BBX 7 13 2 0
BITMAP
1E
30
20
20
FE
20
20
20
20
20
20
20
F8
ENDCHAR
STARTCHAR g
ENCODING 103
SWIDTH 520 0
DWIDTH 11 0
BBX 9 13 0 -4
BITMAP
1E80
6180
8080
8080
8080
8080
8080
4180
3E80
0080
8080
C100
3E00
ENDCHAR
STARTCHAR h
ENCODING 104
SWIDTH 520 0
DWIDTH 11 0
BBX 9 13 0 0
BITMAP
8000
8000
8000
8000
9F00
A180
C080
8080
8080
8080
8080
8080
8080
ENDCHAR
STARTCHAR i
ENCODING 105
SWIDTH 520 0
DWIDTH 11 0
BBX 6 13 2 0
BITMAP
20
20
00
00
F0
10
10
10
10
10
10
10
FC
ENDCHAR
STARTCHAR j
ENCODING 106
SWIDTH 520 0
DWIDTH 11 0
BBX 7 17 0 -4
BITMAP
02
02
00
00
0E
02
02
02
02
02
02
02
02
02
82
46
3C
ENDCHAR
STARTCHAR k
ENCODING 107
SWIDTH 520 0
DWIDTH 11 0
BBX 8 13 1 0
BITMAP
80
80
80
80
83
84
98
B0
F0
D8
8C
86
83
ENDCHAR
STARTCHAR l
ENCODING 108
SWIDTH 520 0
DWIDTH 11 0
BBX 6 13 2 0
BITMAP
F0
10
10
10
10
10
10
10
10
10
10
10
FC
ENDCHAR
STARTCHAR m
ENCODING 109
SWIDTH 520 0
DWIDTH 11 0
BBX 9 9 0 0
BITMAP
BB00
CC80
8880
8880
8880
8880
8880
8880
8880
ENDCHAR
STARTCHAR n
ENCODING 110
SWIDTH 520 0
DWIDTH 11 0
BBX 9 9 0 0
BITMAP
9F00
A180
C080
8080
8080
8080
8080
8080
8080
ENDCHAR
STARTCHAR o
ENCODING 111
SWIDTH 520 0
DWIDTH 11 0
BBX 9 9 0 0
BITMAP
3E00
4100
8080
8080
8080
8080
8080
4100
3E00
ENDCHAR
STARTCHAR p
ENCODING 112
SWIDTH 520 0
DWIDTH 11 0
BBX 9 13 0 -4
BITMAP
BE00
C100
8080
8080
8080
8080
8080
C100
BE00
8000
8000
8000
8000
ENDCHAR
STARTCHAR q
ENCODING 113
SWIDTH 520 0
DWIDTH 11 0
BBX 9 13 0 -4
BITMAP
1E80
6180
8080
8080
8080
8080
8080
4180
3E80
0080
0080
0080
0080
ENDCHAR
STARTCHAR r
ENCODING 114
SWIDTH 520 0
DWIDTH 11 0
BBX 10 9 0 0
BITMAP
F7C0
1C00
1800
1000
1000
1000
1000
1000
FC00
ENDCHAR
STARTCHAR s
ENCODING 115
SWIDTH 520 0
DWIDTH 11 0
BBX 9 9 0 0
BITMAP
7E00
8300
8000
C000
3E00
0180
0080
4080
3F00
ENDCHAR
STARTCHAR t
ENCODING 116
SWIDTH 520 0
DWIDTH 11 0
BBX 9 13 0 0
BITMAP
2000
2000
2000
2000
FE00
2000
2000
2000
2000
2000
2080
3100
1E00
ENDCHAR
STARTCHAR u
ENCODING 117
SWIDTH 520 0
DWIDTH 11 0
BBX 9 9 0 0
BITMAP
8080
8080
8080
8080
8080
8080
8180
C280
7C80
ENDCHAR
STARTCHAR v
ENCODING 118
SWIDTH 520 0
DWIDTH 11 0
BBX 9 9 0 0
BITMAP
C080
C180
4100
6300
2200
3200
1600
1400
1C00
ENDCHAR
STARTCHAR w
ENCODING 119
SWIDTH 520 0
DWIDTH 11 0
BBX 9 9 0 0
BITMAP
8880
8C80
DC80
D580
5500
5500
5700
6300
2300
ENDCHAR
STARTCHAR x
ENCODING 120
SWIDTH 520 0
DWIDTH 11 0
BBX 9 9 0 0
BITMAP
F780
2200
3600
1400
0800
1400
3600
2300
F380
ENDCHAR
STARTCHAR y
ENCODING 121
SWIDTH 520 0
DWIDTH 11 0
BBX 9 13 0 -4
BITMAP
8080
C180
4100
6300
2200
3200
3600
1400
1C00
0800
1800
1000
F000
ENDCHAR
STARTCHAR z
ENCODING 122
SWIDTH 520 0
DWIDTH 11 0
BBX 9 9 0 0
BITMAP
FF80
8380
8700
8E00
1C00
3880
7080
E080
FF80
ENDCHAR
STARTCHAR braceleft
ENCODING 123
SWIDTH 520 0
DWIDTH 11 0
BBX 6 19 2 -4
BITMAP
1C
20
20
20
20
20
20
20
20
C0
60
20
20
20
20
20
20
20
1C
ENDCHAR
STARTCHAR bar
ENCODING 124
SWIDTH 520 0
DWIDTH 11 0
BBX 1 17 4 -2
BITMAP
80
80
80
80
80
80
80
80
80
80
80
80
80
80
80
80
80
ENDCHAR
STARTCHAR braceright
ENCODING 125
SWIDTH 520 0
DWIDTH 11 0
BBX 6 19 2 -4
BITMAP
E0
10
10
10
10
10
10
10
10
0C
18
10
10
10
10
10
10
10
E0
ENDCHAR
STARTCHAR asciitilde
ENCODING 126
SWIDTH 520 0
DWIDTH 11 0
BBX 9 5 0 2
BITMAP
3080
7880
C980
8F00
8200
ENDCHAR
STARTCHAR uni00A0
ENCODING 160
SWIDTH 520 0
DWIDTH 11 0
BBX 1 1 0 0
BITMAP
00
ENDCHAR
STARTCHAR exclamdown
ENCODING 161
SWIDTH 520 0
DWIDTH 11 0
BBX 1 13 6 0
BITMAP
80
80
00
00
80
80
80
80
80
80
80
80
80
ENDCHAR
STARTCHAR cent
ENCODING 162
SWIDTH 520 0
DWIDTH 11 0
BBX 9 13 0 0
BITMAP
0800
0800
3E00
6900
8880
8800
8800
8800
8800
4980
3F00
0800
0800
ENDCHAR
STARTCHAR sterling
ENCODING 163
SWIDTH 520 0
DWIDTH 11 0
BBX 9 13 0 0
BITMAP
1E00
2200
2100
2000
2000
2000
F800
2000
2000
2000
2080
2100
FE00
ENDCHAR
STARTCHAR currency
ENCODING 164
SWIDTH 520 0
DWIDTH 11 0
BBX 9 10 0 1
BITMAP
BE80
4100
8100
8080
8080
8080
8080
4100
BF00
8080
ENDCHAR
STARTCHAR yen
ENCODING 165
SWIDTH 520 0
DWIDTH 11 0
BBX 9 13 0 0
BITMAP
C180
6100
2200
2200
F780
1400
0800
0800
FF80
0800
0800
0800
0800
ENDCHAR
STARTCHAR brokenbar
ENCODING 166
SWIDTH 520 0
DWIDTH 11 0
BBX 1 17 4 -2
BITMAP
80
80
80
80
80
80
80
00
00
00
80
80
80
80
80
80
80
ENDCHAR
STARTCHAR section
ENCODING 167
SWIDTH 520 0
DWIDTH 11 0
BBX 8 18 1 -2
BITMAP
3C
C2
81
82
C0
70
9C
82
81
C1
79
1E
06
01
81
81
63
3E
ENDCHAR
STARTCHAR dieresis
ENCODING 168
SWIDTH 520 0
DWIDTH 11 0
BBX 5 1 2 12
BITMAP
C8
ENDCHAR
STARTCHAR copyright
ENCODING 169
SWIDTH 520 0
DWIDTH 10 0
BBX 11 11 0 2
BITMAP
1F00
2080
5E40
B320
A020
A020
A020
B320
5E40
2080
1F00
ENDCHAR
STARTCHAR ordfeminine
ENCODING 170
SWIDTH 520 0
DWIDTH 11 0
BBX 7 10 0 3
BITMAP
7C
42
02
3E
C2
82
86
7A
00
FE
ENDCHAR
STARTCHAR guillemotleft
ENCODING 171
SWIDTH 520 0
DWIDTH 11 0
BBX 8 7 0 1
BITMAP
12
33
64
C8
64
22
13
ENDCHAR
STARTCHAR logicalnot
ENCODING 172
SWIDTH 520 0
DWIDTH 11 0
BBX 9 5 0 0
BITMAP
FF80
0080
0080
0080
0080
ENDCHAR
STARTCHAR uni00AD
ENCODING 173
SWIDTH 520 0
DWIDTH 11 0
BBX 9 1 0 4
BITMAP
FF80
ENDCHAR
STARTCHAR registered
ENCODING 174
SWIDTH 520 0
DWIDTH 11 0
BBX 11 12 0 3
BITMAP
1F00
2080
4040
9E20
9120
9120
9F20
9620
9740
5340
2080
1F00
ENDCHAR
STARTCHAR macron
ENCODING 175
SWIDTH 520 0
DWIDTH 11 0
BBX 5 1 2 11
BITMAP
F8
ENDCHAR
STARTCHAR degree
ENCODING 176
SWIDTH 520 0
DWIDTH 11 0
BBX 7 8 0 7
BITMAP
38
44
82
82
82
82
44
38
ENDCHAR
STARTCHAR plusminus
ENCODING 177
SWIDTH 520 0
DWIDTH 11 0
BBX 9 11 0 -2
BITMAP
0800
0800
0800
0800
FF80
0800
0800
0800
0800
0000
FF80
ENDCHAR
STARTCHAR twosuperior
ENCODING 178
SWIDTH 520 0
DWIDTH 11 0
BBX 4 6 0 7
BITMAP
60
90
10
20
50
F0
ENDCHAR
STARTCHAR threesuperior
ENCODING 179
SWIDTH 520 0
DWIDTH 11 0
BBX 4 6 0 7
BITMAP
70
90
10
30
90
F0
ENDCHAR
STARTCHAR acute
ENCODING 180
SWIDTH 520 0
DWIDTH 11 0
BBX 5 3 2 10
BITMAP
08
30
C0
ENDCHAR
STARTCHAR mu
ENCODING 181
SWIDTH 520 0
DWIDTH 11 0
BBX 9 13 0 -4
BITMAP
8080
8080
8080
8080
8080
8080
8180
C380
FC80
8000
8000
8000
8000
ENDCHAR
STARTCHAR paragraph
ENCODING 182
SWIDTH 520 0
DWIDTH 11 0
BBX 9 13 0 0
BITMAP
3F80
6880
8880
8880
8880
4880
3F80
0880
0880
0880
0880
0880
0880
ENDCHAR
STARTCHAR periodcentered
ENCODING 183
SWIDTH 520 0
DWIDTH 11 0
BBX 1 2 4 4
BITMAP
80
80
ENDCHAR
STARTCHAR cedilla
ENCODING 184
SWIDTH 520 0
DWIDTH 11 0
BBX 3 4 2 -4
BITMAP
20
20
60
C0
ENDCHAR
STARTCHAR onesuperior
ENCODING 185
SWIDTH 520 0
DWIDTH 11 0
BBX 4 6 0 7
BITMAP
20
60
E0
20
20
70
ENDCHAR
STARTCHAR ordmasculine
ENCODING 186
SWIDTH 520 0
DWIDTH 11 0
BBX 8 10 0 3
BITMAP
3C
42
81
81
81
81
42
3C
00
FE
ENDCHAR
STARTCHAR guillemotright
ENCODING 187
SWIDTH 520 0
DWIDTH 11 0
BBX 8 7 1 1
BITMAP
48
E4
22
13
22
64
C8
ENDCHAR
STARTCHAR onequarter
ENCODING 188
SWIDTH 520 0
DWIDTH 11 0
BBX 9 13 0 0
BITMAP
2080
2100
E300
2200
2400
7C00
0800
1000
3100
2300
4500
C780
8380
ENDCHAR
STARTCHAR onehalf
ENCODING 189
SWIDTH 520 0
DWIDTH 11 0
BBX 9 13 0 0
BITMAP
2080
2100
E300
2200
2400
7C00
0800
1300
3480
2080
4100
4280
8780
ENDCHAR
STARTCHAR threequarters
ENCODING 190
SWIDTH 520 0
DWIDTH 11 0
BBX 9 13 0 0
BITMAP
6080
9100
1300
2200
9400
FC00
0800
1000
3100
2300
4500
C780
8380
ENDCHAR
STARTCHAR questiondown
ENCODING 191
SWIDTH 520 0
DWIDTH 11 0
BBX 7 13 2 0
BITMAP
08
08
00
00
08
18
10
60
C0
80
86
84
78
ENDCHAR
STARTCHAR Agrave
ENCODING 192
SWIDTH 520 0
DWIDTH 11 0
BBX 11 17 -1 0
BITMAP
0800
1C00
0300
0000
0600
0E00
0A00
0B00
1900
1100
1180
3080
3F80
20C0
6040
4040
C060
ENDCHAR
STARTCHAR Aacute
ENCODING 193
SWIDTH 520 0
DWIDTH 11 0
BBX 11 17 -1 0
BITMAP
0100
0600
1800
0000
0600
0E00
0A00
0B00
1900
1100
1180
3080
3F80
20C0
6040
4040
C060
ENDCHAR
STARTCHAR Acircumflex
ENCODING 194
SWIDTH 520 0
DWIDTH 11 0
BBX 11 17 -1 0
BITMAP
0400
0A00
1100
0000
0600
0E00
0A00
0B00
1900
1100
1180
3080
3F80
20C0
6040
4040
C060
ENDCHAR
STARTCHAR Atilde
ENCODING 195
SWIDTH 520 0
DWIDTH 11 0
BBX 11 17 -1 0
BITMAP
1800
2480
0300
0000
0600
0E00
0A00
0B00
1900
1100
1180
3080
3F80
20C0
6040
4040
C060
ENDCHAR
STARTCHAR Adieresis
ENCODING 196
SWIDTH 520 0
DWIDTH 11 0
BBX 11 17 -1 0
BITMAP
1900
0000
0000
0000
0600
0E00
0A00
0B00
1900
1100
1180
3080
3F80
20C0
6040
4040
C060
ENDCHAR
STARTCHAR Aring
ENCODING 197
SWIDTH 520 0
DWIDTH 11 0
BBX 10 16 0 0
BITMAP
1C00
1200
1200
1E00
0C00
1400
1600
1200
2200
2300
2100
7F00
4180
4080
C080
80C0
ENDCHAR
STARTCHAR AE
ENCODING 198
SWIDTH 520 0
DWIDTH 11 0
BBX 10 13 -1 0
BITMAP
0FC0
0C00
1C00
1400
1400
3400
3780
2400
3C00
6400
4400
4400
C7C0
ENDCHAR
STARTCHAR Ccedilla
ENCODING 199
SWIDTH 520 0
DWIDTH 11 0
BBX 9 17 0 -4
BITMAP
1E80
6180
4080
8080
8000
8000
8000
8000
8000
8100
4180
4300
3E00
0800
0800
3800
3000
ENDCHAR
STARTCHAR Egrave
ENCODING 200
SWIDTH 520 0
DWIDTH 11 0
BBX 8 17 1 0
BITMAP
20
70
0C
00
FF
80
80
80
80
80
FC
80
80
80
80
80
FF
ENDCHAR
STARTCHAR Eacute
ENCODING 201
SWIDTH 520 0
DWIDTH 11 0
BBX 8 17 1 0
BITMAP
04
18
60
00
FF
80
80
80
80
80
FC
80
80
80
80
80
FF
ENDCHAR
STARTCHAR Ecircumflex
ENCODING 202
SWIDTH 520 0
DWIDTH 11 0
BBX 8 17 1 0
BITMAP
10
28
44
00
FF
80
80
80
80
80
FC
80
80
80
80
80
FF
ENDCHAR
STARTCHAR Edieresis
ENCODING 203
SWIDTH 520 0
DWIDTH 11 0
BBX 8 17 1 0
BITMAP
64
00
00
00
FF
80
80
80
80
80
FC
80
80
80
80
80
FF
ENDCHAR
STARTCHAR Igrave
ENCODING 204
SWIDTH 520 0
DWIDTH 11 0
BBX 5 17 2 0
BITMAP
40
E0
18
00
F8
20
20
20
20
20
20
20
20
20
20
20
F8
ENDCHAR
STARTCHAR Iacute
ENCODING 205
SWIDTH 520 0
DWIDTH 11 0
BBX 5 17 2 0
BITMAP
08
30
C0
00
F8
20
20
20
20
20
20
20
20
20
20
20
F8
ENDCHAR
STARTCHAR Icircumflex
ENCODING 206
SWIDTH 520 0
DWIDTH 11 0
BBX 5 17 2 0
BITMAP
20
50
88
00
F8
20
20
20
20
20
20
20
20
20
20
20
F8
ENDCHAR
STARTCHAR Idieresis
ENCODING 207
SWIDTH 520 0
DWIDTH 11 0
BBX 5 17 2 0
BITMAP
C8
00
00
00
F8
20
20
20
20
20
20
20
20
20
20
20
F8
ENDCHAR
STARTCHAR Eth
ENCODING 208
SWIDTH 520 0
DWIDTH 11 0
BBX 12 13 -2 0
BITMAP
3F80
2040
2020
2010
2010
2010
F810
2010
2010
2010
2020
2040
3F80
ENDCHAR
STARTCHAR Ntilde
ENCODING 209
SWIDTH 520 0
DWIDTH 11 0
BBX 9 17 0 0
BITMAP
3000
4900
0600
0000
C080
E080
F080
B080
B880
9880
9C80
8C80
8680
8680
8380
8380
8180
ENDCHAR
STARTCHAR Ograve
ENCODING 210
SWIDTH 520 0
DWIDTH 11 0
BBX 10 17 0 0
BITMAP
1000
3800
0600
0000
1E00
2100
4080
8040
8040
8040
8040
8040
8040
8040
4080
6100
1E00
ENDCHAR
STARTCHAR Oacute
ENCODING 211
SWIDTH 520 0
DWIDTH 11 0
BBX 10 17 0 0
BITMAP
0200
0C00
3000
0000
1E00
2100
4080
8040
8040
8040
8040
8040
8040
8040
4080
6100
1E00
ENDCHAR
STARTCHAR Ocircumflex
ENCODING 212
SWIDTH 520 0
DWIDTH 11 0
BBX 10 17 0 0
BITMAP
0800
1400
2200
0000
1E00
2100
4080
8040
8040
8040
8040
8040
8040
8040
4080
6100
1E00
ENDCHAR
STARTCHAR Otilde
ENCODING 213
SWIDTH 520 0
DWIDTH 11 0
BBX 10 17 0 0
BITMAP
3000
4900
0600
0000
1E00
2100
4080
8040
8040
8040
8040
8040
8040
8040
4080
6100
1E00
ENDCHAR
STARTCHAR Odieresis
ENCODING 214
SWIDTH 520 0
DWIDTH 11 0
BBX 10 17 0 0
BITMAP
3200
0000
0000
0000
1E00
2100
4080
8040
8040
8040
8040
8040
8040
8040
4080
6100
1E00
ENDCHAR
STARTCHAR multiply
ENCODING 215
SWIDTH 520 0
DWIDTH 11 0
BBX 7 7 1 1
BITMAP
82
44
28
10
28
44
82
ENDCHAR
STARTCHAR Oslash
ENCODING 216
SWIDTH 520 0
DWIDTH 11 0
BBX 10 13 0 0
BITMAP
1E40
2140
40C0
C1C0
8340
8640
8C40
9840
B040
E0C0
C080
A180
9E00
ENDCHAR
STARTCHAR Ugrave
ENCODING 217
SWIDTH 520 0
DWIDTH 11 0
BBX 9 17 0 0
BITMAP
1000
3800
0600
0000
8080
8080
8080
8080
8080
8080
8080
8080
8080
8080
8080
4100
3E00
ENDCHAR
STARTCHAR Uacute
ENCODING 218
SWIDTH 520 0
DWIDTH 11 0
BBX 9 17 0 0
BITMAP
0200
0C00
3000
0000
8080
8080
8080
8080
8080
8080
8080
8080
8080
8080
8080
4100
3E00
ENDCHAR
STARTCHAR Ucircumflex
ENCODING 219
SWIDTH 520 0
DWIDTH 11 0
BBX 9 17 0 0
BITMAP
0800
1400
2200
0000
8080
8080
8080
8080
8080
8080
8080
8080
8080
8080
8080
4100
3E00
ENDCHAR
STARTCHAR Udieresis
ENCODING 220
SWIDTH 520 0
DWIDTH 11 0
BBX 9 17 0 0
BITMAP
3200
0000
0000
0000
8080
8080
8080
8080
8080
8080
8080
8080
8080
8080
8080
4100
3E00
ENDCHAR
STARTCHAR Yacute
ENCODING 221
SWIDTH 520 0
DWIDTH 11 0
BBX 9 17 0 0
BITMAP
0200
0C00
3000
0000
F780
6300
2200
2200
1400
1400
0800
0800
0800
0800
0800
0800
3E00
ENDCHAR
STARTCHAR Thorn
ENCODING 222
SWIDTH 520 0
DWIDTH 11 0
BBX 9 13 0 0
BITMAP
8000
8000
8000
FE00
8100
8080
8080
8080
8100
FE00
8000
8000
8000
ENDCHAR
STARTCHAR germandbls
ENCODING 223
SWIDTH 520 0
DWIDTH 11 0
BBX 8 13 1 0
BITMAP
78
44
84
84
88
90
90
8C
82
81
81
A1
9E
ENDCHAR
STARTCHAR agrave
ENCODING 224
SWIDTH 520 0
DWIDTH 11 0
BBX 9 13 0 0
BITMAP
1000
3800
0600
0000
3F00
6180
0080
0080
3F80
C080
8080
8380
7C80
ENDCHAR
STARTCHAR aacute
ENCODING 225
SWIDTH 520 0
DWIDTH 11 0
BBX 9 13 0 0
BITMAP
0200
0C00
3000
0000
3F00
6180
0080
0080
3F80
C080
8080
8380
7C80
ENDCHAR
STARTCHAR acircumflex
ENCODING 226
SWIDTH 520 0
DWIDTH 11 0
BBX 9 13 0 0
BITMAP
0800
1400
2200
0000
3F00
6180
0080
0080
3F80
C080
8080
8380
7C80
ENDCHAR
STARTCHAR atilde
ENCODING 227
SWIDTH 520 0
DWIDTH 11 0
BBX 9 13 0 0
BITMAP
3000
4900
0600
0000
3F00
6180
0080
0080
3F80
C080
8080
8380
7C80
ENDCHAR
STARTCHAR adieresis
ENCODING 228
SWIDTH 520 0
DWIDTH 11 0
BBX 9 13 0 0
BITMAP
3200
0000
0000
0000
3F00
6180
0080
0080
3F80
C080
8080
8380
7C80
ENDCHAR
STARTCHAR aring
ENCODING 229
SWIDTH 520 0
DWIDTH 11 0
BBX 9 15 0 0
BITMAP
1C00
1200
1200
1200
1C00
0000
3F00
6180
0080
0080
3F80
C080
8080
8380
7C80
ENDCHAR
STARTCHAR ae
ENCODING 230
SWIDTH 520 0
DWIDTH 11 0
BBX 9 9 0 0
BITMAP
7700
8980
0880
0880
7F80
8800
8800
9880
7700
ENDCHAR
STARTCHAR ccedilla
ENCODING 231
SWIDTH 520 0
DWIDTH 11 0
BBX 9 13 0 -4
BITMAP
3E80
4180
8080
8080
8000
8000
8000
4100
3E00
0800
0800
3800
3000
ENDCHAR
STARTCHAR egrave
ENCODING 232
SWIDTH 520 0
DWIDTH 11 0
BBX 9 13 0 0
BITMAP
1000
3800
0600
0000
3E00
6100
C180
8080
FF80
8000
C000
6180
3E00
ENDCHAR
STARTCHAR eacute
ENCODING 233
SWIDTH 520 0
DWIDTH 11 0
BBX 9 13 0 0
BITMAP
0200
0C00
3000
0000
3E00
6100
C180
8080
FF80
8000
C000
6180
3E00
ENDCHAR
STARTCHAR ecircumflex
ENCODING 234
SWIDTH 520 0
DWIDTH 11 0
BBX 9 13 0 0
BITMAP
0800
1400
2200
0000
3E00
6100
C180
8080
FF80
8000
C000
6180
3E00
ENDCHAR
STARTCHAR edieresis
ENCODING 235
SWIDTH 520 0
DWIDTH 11 0
BBX 9 13 0 0
BITMAP
3200
0000
0000
0000
3E00
6100
C180
8080
FF80
8000
C000
6180
3E00
ENDCHAR
STARTCHAR igrave
ENCODING 236
SWIDTH 520 0
DWIDTH 11 0
BBX 6 13 2 0
BITMAP
40
E0
18
00
F0
10
10
10
10
10
10
10
FC
ENDCHAR
STARTCHAR iacute
ENCODING 237
SWIDTH 520 0
DWIDTH 11 0
BBX 6 13 2 0
BITMAP
08
30
C0
00
F0
10
10
10
10
10
10
10
FC
ENDCHAR
STARTCHAR icircumflex
ENCODING 238
SWIDTH 520 0
DWIDTH 11 0
BBX 6 13 2 0
BITMAP
20
50
88
00
F0
10
10
10
10
10
10
10
FC
ENDCHAR
STARTCHAR idieresis
ENCODING 239
SWIDTH 520 0
DWIDTH 11 0
BBX 6 13 2 0
BITMAP
C8
00
00
00
F0
10
10
10
10
10
10
10
FC
ENDCHAR
STARTCHAR eth
ENCODING 240
SWIDTH 520 0
DWIDTH 11 0
BBX 9 13 0 0
BITMAP
2400
3E00
1C00
3200
0100
0F80
3080
4080
8080
8080
8100
4300
3C00
ENDCHAR
STARTCHAR ntilde
ENCODING 241
SWIDTH 520 0
DWIDTH 11 0
BBX 9 13 0 0
BITMAP
3000
4900
0600
0000
9F00
A180
C080
8080
8080
8080
8080
8080
8080
ENDCHAR
STARTCHAR ograve
ENCODING 242
SWIDTH 520 0
DWIDTH 11 0
BBX 9 13 0 0
BITMAP
1000
3800
0600
0000
3E00
4100
8080
8080
8080
8080
8080
4100
3E00
ENDCHAR
STARTCHAR oacute
ENCODING 243
SWIDTH 520 0
DWIDTH 11 0
BBX 9 13 0 0
BITMAP
0200
0C00
3000
0000
3E00
4100
8080
8080
8080
8080
8080
4100
3E00
ENDCHAR
STARTCHAR ocircumflex
ENCODING 244
SWIDTH 520 0
DWIDTH 11 0
BBX 9 13 0 0
BITMAP
0800
1400
2200
0000
3E00
4100
8080
8080
8080
8080
8080
4100
3E00
ENDCHAR
STARTCHAR otilde
ENCODING 245
SWIDTH 520 0
DWIDTH 11 0
BBX 9 13 0 0
BITMAP
3000
4900
0600
0000
3E00
4100
8080
8080
8080
8080
8080
4100
3E00
ENDCHAR
STARTCHAR odieresis
ENCODING 246
SWIDTH 520 0
DWIDTH 11 0
BBX 9 13 0 0
BITMAP
3200
0000
0000
0000
3E00
4100
8080
8080
8080
8080
8080
4100
3E00
ENDCHAR
STARTCHAR divide
ENCODING 247
SWIDTH 520 0
DWIDTH 11 0
BBX 9 8 0 1
BITMAP
0800
0000
0000
0000
FF80
0000
0000
0800
ENDCHAR
STARTCHAR oslash
ENCODING 248
SWIDTH 520 0
DWIDTH 11 0
BBX 9 9 0 0
BITMAP
3E80
4380
8380
8680
9C80
B080
E080
E100
BE00
ENDCHAR
STARTCHAR ugrave
ENCODING 249
SWIDTH 520 0
DWIDTH 11 0
BBX 9 13 0 0
BITMAP
1000
3800
0600
0000
8080
8080
8080
8080
8080
8080
8180
C280
7C80
ENDCHAR
STARTCHAR uacute
ENCODING 250
SWIDTH 520 0
DWIDTH 11 0
BBX 9 13 0 0
BITMAP
0200
0C00
3000
0000
8080
8080
8080
8080
8080
8080
8180
C280
7C80
ENDCHAR
STARTCHAR ucircumflex
ENCODING 251
SWIDTH 520 0
DWIDTH 11 0
BBX 9 13 0 0
BITMAP
0800
1400
2200
0000
8080
8080
8080
8080
8080
8080
8180
C280
7C80
ENDCHAR
STARTCHAR udieresis
ENCODING 252
SWIDTH 520 0
DWIDTH 11 0
BBX 9 13 0 0
BITMAP
3200
0000
0000
0000
8080
8080
8080
8080
8080
8080
8180
C280
7C80
ENDCHAR
STARTCHAR yacute
ENCODING 253
SWIDTH 520 0
DWIDTH 11 0
BBX 9 17 0 -4
BITMAP
0200
0C00
3000
0000
8080
C180
4100
6300
2200
3200
3600
1400
1C00
0800
1800
1000
F000
ENDCHAR
STARTCHAR thorn
ENCODING 254
SWIDTH 520 0
DWIDTH 11 0
BBX 9 17 0 -4
BITMAP
8000
8000
8000
8000
BE00
C100
8080
8080
8080
8080
8080
C100
BE00
8000
8000
8000
8000
ENDCHAR
STARTCHAR ydieresis
ENCODING 255
SWIDTH 520 0
DWIDTH 11 0
BBX 9 17 0 -4
BITMAP
3200
0000
0000
0000
8080
C180
4100
6300
2200
3200
3600
1400
1C00
0800
1800
1000
F000
ENDCHAR
STARTCHAR Amacron
ENCODING 256
SWIDTH 520 0
DWIDTH 11 0
BBX 11 16 -1 0
BITMAP
1F00
0000
0000
0600
0E00
0A00
0B00
1900
1100
1180
3080
3F80
20C0
6040
4040
C060
ENDCHAR
STARTCHAR amacron
ENCODING 257
SWIDTH 520 0
DWIDTH 11 0
BBX 9 12 0 0
BITMAP
3E00
0000
0000
3F00
6180
0080
0080
3F80
C080
8080
8380
7C80
ENDCHAR
STARTCHAR Abreve
ENCODING 258
SWIDTH 520 0
DWIDTH 11 0
BBX 11 17 -1 0
BITMAP
1100
0E00
0000
0000
0600
0E00
0A00
0B00
1900
1100
1180
3080
3F80
20C0
6040
4040
C060
ENDCHAR
STARTCHAR abreve
ENCODING 259
SWIDTH 520 0
DWIDTH 11 0
BBX 9 13 0 0
BITMAP
2200
1C00
0000
0000
3F00
6180
0080
0080
3F80
C080
8080
8380
7C80
ENDCHAR
STARTCHAR Aogonek
ENCODING 260
SWIDTH 520 0
DWIDTH 11 0
BBX 12 17 -1 -4
BITMAP
0C00
0E00
0A00
1A00
1900
1100
3100
3080
3F80
6080
40C0
4040
C040
0040
0040
0040
0030
ENDCHAR
STARTCHAR aogonek
ENCODING 261
SWIDTH 520 0
DWIDTH 11 0
BBX 10 13 0 -4
BITMAP
7E00
C300
0100
0100
3F00
C100
8100
8300
7D00
0100
0100
0100
00C0
ENDCHAR
STARTCHAR Cacute
ENCODING 262
SWIDTH 520 0
DWIDTH 11 0
BBX 9 17 0 0
BITMAP
0200
0C00
3000
0000
1E80
6180
4080
8080
8000
8000
8000
8000
8000
8080
4180
6100
1E00
ENDCHAR
STARTCHAR cacute
ENCODING 263
SWIDTH 520 0
DWIDTH 11 0
BBX 9 13 0 0
BITMAP
0200
0C00
3000
0000
3E80
4180
8080
8080
8000
8000
8000
4180
3F00
ENDCHAR
STARTCHAR Ccircumflex
ENCODING 264
SWIDTH 520 0
DWIDTH 11 0
BBX 9 17 0 0
BITMAP
0800
1400
2200
0000
1E80
6180
4080
8080
8000
8000
8000
8000
8000
8080
4180
6100
1E00
ENDCHAR
STARTCHAR ccircumflex
ENCODING 265
SWIDTH 520 0
DWIDTH 11 0
BBX 9 13 0 0
BITMAP
0800
1400
2200
0000
3E80
4180
8080
8080
8000
8000
8000
4180
3F00
ENDCHAR
STARTCHAR Cdotaccent
ENCODING 266
SWIDTH 520 0
DWIDTH 11 0
BBX 9 17 0 0
BITMAP
0800
0800
0000
0000
1E80
6180
4080
8080
8000
8000
8000
8000
8000
8080
4180
6100
1E00
ENDCHAR
STARTCHAR cdotaccent
ENCODING 267
SWIDTH 520 0
DWIDTH 11 0
BBX 9 13 0 0
BITMAP
0800
0800
0000
0000
3E80
4180
8080
8080
8000
8000
8000
4180
3F00
ENDCHAR
STARTCHAR Ccaron
ENCODING 268
SWIDTH 520 0
DWIDTH 11 0
BBX 9 17 0 0
BITMAP
2200
1400
0800
0000
1E80
6180
4080
8080
8000
8000
8000
8000
8000
8080
4180
6100
1E00
ENDCHAR
STARTCHAR ccaron
ENCODING 269
SWIDTH 520 0
DWIDTH 11 0
BBX 9 13 0 0
BITMAP
2200
1400
0800
0000
3E80
4180
8080
8080
8000
8000
8000
4180
3F00
ENDCHAR
STARTCHAR Dcaron
ENCODING 270
SWIDTH 520 0
DWIDTH 11 0
BBX 10 17 0 0
BITMAP
2200
1400
0800
0000
FE00
8100
8080
8040
8040
8040
8040
8040
8040
8040
8080
8100
FE00
ENDCHAR
STARTCHAR dcaron
ENCODING 271
SWIDTH 520 0
DWIDTH 11 0
BBX 10 13 0 0
BITMAP
0E40
0240
0240
0240
3A40
4600
8200
8200
8200
8200
8200
4600
3E00
ENDCHAR
STARTCHAR Dcroat
ENCODING 272
SWIDTH 520 0
DWIDTH 11 0
BBX 12 13 -2 0
BITMAP
3F80
2040
2020
2010
2010
2010
F810
2010
2010
2010
2020
2040
3F80
ENDCHAR
STARTCHAR dcroat
ENCODING 273
SWIDTH 520 0
DWIDTH 11 0
BBX 11 13 0 0
BITMAP
0080
0080
03E0
0080
1E80
6180
8080
8080
8080
8080
8080
4180
3E80
ENDCHAR
STARTCHAR Emacron
ENCODING 274
SWIDTH 520 0
DWIDTH 11 0
BBX 8 16 1 0
BITMAP
7C
00
00
FF
80
80
80
80
80
FC
80
80
80
80
80
FF
ENDCHAR
STARTCHAR emacron
ENCODING 275
SWIDTH 520 0
DWIDTH 11 0
BBX 9 12 0 0
BITMAP
3E00
0000
0000
3E00
6100
C180
8080
FF80
8000
C000
6180
3E00
ENDCHAR
STARTCHAR Ebreve
ENCODING 276
SWIDTH 520 0
DWIDTH 11 0
BBX 8 17 1 0
BITMAP
44
38
00
00
FF
80
80
80
80
80
FC
80
80
80
80
80
FF
ENDCHAR
STARTCHAR ebreve
ENCODING 277
SWIDTH 520 0
DWIDTH 11 0
BBX 9 13 0 0
BITMAP
2200
1C00
0000
0000
3E00
6100
C180
8080
FF80
8000
C000
6180
3E00
ENDCHAR
STARTCHAR Edotaccent
ENCODING 278
SWIDTH 520 0
DWIDTH 11 0
BBX 8 17 1 0
BITMAP
10
10
00
00
FF
80
80
80
80
80
FC
80
80
80
80
80
FF
ENDCHAR
STARTCHAR edotaccent
ENCODING 279
SWIDTH 520 0
DWIDTH 11 0
BBX 9 13 0 0
BITMAP
0800
0800
0000
0000
3E00
6100
C180
8080
FF80
8000
C000
6180
3E00
ENDCHAR
STARTCHAR Eogonek
ENCODING 280
SWIDTH 520 0
DWIDTH 11 0
BBX 9 17 1 -4
BITMAP
FF00
8000
8000
8000
8000
8000
FC00
8000
8000
8000
8000
8000
FE00
0200
0200
0200
0180
ENDCHAR
STARTCHAR eogonek
ENCODING 281
SWIDTH 520 0
DWIDTH 11 0
BBX 9 13 0 -4
BITMAP
3E00
6100
C180
8080
FF80
8000
C000
6180
3F00
0400
0400
0400
0300
ENDCHAR
STARTCHAR Ecaron
ENCODING 282
SWIDTH 520 0
DWIDTH 11 0
BBX 8 17 1 0
BITMAP
44
28
10
00
FF
80
80
80
80
80
FC
80
80
80
80
80
FF
ENDCHAR
STARTCHAR ecaron
ENCODING 283
SWIDTH 520 0
DWIDTH 11 0
BBX 9 13 0 0
BITMAP
2200
1400
0800
0000
3E00
6100
C180
8080
FF80
8000
C000
6180
3E00
ENDCHAR
STARTCHAR Gcircumflex
ENCODING 284
SWIDTH 520 0
DWIDTH 11 0
BBX 9 17 0 0
BITMAP
0800
1400
2200
0000
1E80
6180
4080
8080
8000
8000
8780
8080
8180
8180
4100
4300
3C00
ENDCHAR
STARTCHAR gcircumflex
ENCODING 285
SWIDTH 520 0
DWIDTH 11 0
BBX 9 17 0 -4
BITMAP
0800
1400
2200
0000
1E80
6180
8080
8080
8080
8080
8080
4180
3E80
0080
8080
C100
3E00
ENDCHAR
STARTCHAR Gbreve
ENCODING 286
SWIDTH 520 0
DWIDTH 11 0
BBX 9 17 0 0
BITMAP
2200
1C00
0000
0000
1E80
6180
4080
8080
8000
8000
8780
8080
8180
8180
4100
4300
3C00
ENDCHAR
STARTCHAR gbreve
ENCODING 287
SWIDTH 520 0
DWIDTH 11 0
BBX 9 17 0 -4
BITMAP
2200
1C00
0000
0000
1E80
6180
8080
8080
8080
8080
8080
4180
3E80
0080
8080
C100
3E00
ENDCHAR
STARTCHAR Gdotaccent
ENCODING 288
SWIDTH 520 0
DWIDTH 11 0
BBX 9 17 0 0
BITMAP
0800
0800
0000
0000
1E80
6180
4080
8080
8000
8000
8780
8080
8180
8180
4100
4300
3C00
ENDCHAR
STARTCHAR gdotaccent
ENCODING 289
SWIDTH 520 0
DWIDTH 11 0
BBX 9 17 0 -4
BITMAP
0800
0800
0000
0000
1E80
6180
8080
8080
8080
8080
8080
4180
3E80
0080
8080
C100
3E00
ENDCHAR
STARTCHAR Gcommaaccent
ENCODING 290
SWIDTH 520 0
DWIDTH 11 0
BBX 9 17 0 -4
BITMAP
1E80
6180
4080
8080
8000
8000
8780
8080
8180
8180
4100
4300
3C00
0000
0C00
1800
1800
ENDCHAR
STARTCHAR gcommaaccent
ENCODING 291
SWIDTH 520 0
DWIDTH 11 0
BBX 9 19 0 -4
BITMAP
0600
0400
0800
1800
0000
0000
1E80
6180
8080
8080
8080
8080
8080
4180
3E80
0080
8080
C100
3E00
ENDCHAR
STARTCHAR Hcircumflex
ENCODING 292
SWIDTH 520 0
DWIDTH 11 0
BBX 9 17 0 0
BITMAP
0800
1400
2200
0000
8080
8080
8080
8080
8080
8080
FF80
8080
8080
8080
8080
8080
8080
ENDCHAR
STARTCHAR hcircumflex
ENCODING 293
SWIDTH 520 0
DWIDTH 11 0
BBX 9 17 0 0
BITMAP
0800
1400
2200
0000
8000
8000
8000
8000
9F00
A180
C080
8080
8080
8080
8080
8080
8080
ENDCHAR
STARTCHAR Hbar
ENCODING 294
SWIDTH 520 0
DWIDTH 11 0
BBX 13 13 -2 0
BITMAP
2020
2020
FFF8
2020
2020
2020
3FE0
2020
2020
2020
2020
2020
2020
ENDCHAR
STARTCHAR hbar
ENCODING 295
SWIDTH 520 0
DWIDTH 11 0
BBX 11 13 -2 0
BITMAP
2000
2000
F800
2000
27C0
2860
3020
2020
2020
2020
2020
2020
2020
ENDCHAR
STARTCHAR Itilde
ENCODING 296
SWIDTH 520 0
DWIDTH 11 0
BBX 7 17 1 0
BITMAP
60
92
0C
00
7C
10
10
10
10
10
10
10
10
10
10
10
7C
ENDCHAR
STARTCHAR itilde
ENCODING 297
SWIDTH 520 0
DWIDTH 11 0
BBX 7 13 1 0
BITMAP
60
92
0C
00
78
08
08
08
08
08
08
08
7E
ENDCHAR
STARTCHAR Imacron
ENCODING 298
SWIDTH 520 0
DWIDTH 11 0
BBX 5 16 2 0
BITMAP
F8
00
00
F8
20
20
20
20
20
20
20
20
20
20
20
F8
ENDCHAR
STARTCHAR imacron
ENCODING 299
SWIDTH 520 0
DWIDTH 11 0
BBX 6 12 2 0
BITMAP
F8
00
00
F0
10
10
10
10
10
10
10
FC
ENDCHAR
STARTCHAR Ibreve
ENCODING 300
SWIDTH 520 0
DWIDTH 11 0
BBX 5 17 2 0
BITMAP
88
70
00
00
F8
20
20
20
20
20
20
20
20
20
20
20
F8
ENDCHAR
STARTCHAR ibreve
ENCODING 301
SWIDTH 520 0
DWIDTH 11 0
BBX 6 13 2 0
BITMAP
88
70
00
00
F0
10
10
10
10
10
10
10
FC
ENDCHAR
STARTCHAR Iogonek
ENCODING 302
SWIDTH 520 0
DWIDTH 11 0
BBX 7 17 2 -4
BITMAP
F8
20
20
20
20
20
20
20
20
20
20
20
F8
08
08
08
06
ENDCHAR
STARTCHAR iogonek
ENCODING 303
SWIDTH 520 0
DWIDTH 11 0
BBX 7 17 2 -4
BITMAP
20
20
00
00
F0
10
10
10
10
10
10
10
F8
08
08
08
06
ENDCHAR
STARTCHAR Idotaccent
ENCODING 304
SWIDTH 520 0
DWIDTH 11 0
BBX 5 17 2 0
BITMAP
20
20
00
00
F8
20
20
20
20
20
20
20
20
20
20
20
F8
ENDCHAR
STARTCHAR dotlessi
ENCODING 305
SWIDTH 520 0
DWIDTH 11 0
BBX 6 9 2 0
BITMAP
F0
10
10
10
10
10
10
10
FC
ENDCHAR
STARTCHAR IJ
ENCODING 306
SWIDTH 520 0
DWIDTH 11 0
BBX 9 17 0 -4
BITMAP
F880
2080
2080
2080
2080
2080
2080
2080
2080
2080
2080
2080
F880
0080
0080
2100
1E00
ENDCHAR
STARTCHAR ij
ENCODING 307
SWIDTH 520 0
DWIDTH 11 0
BBX 9 17 0 -4
BITMAP
3180
0000
0000
0000
F380
1080
1080
1080
1080
1080
1080
1080
FC80
0080
2080
1100
0F00
ENDCHAR
STARTCHAR Jcircumflex
ENCODING 308
SWIDTH 520 0
DWIDTH 11 0
BBX 8 17 0 0
BITMAP
08
14
22
00
01
01
01
01
01
01
01
01
01
81
81
42
3C
ENDCHAR
STARTCHAR jcircumflex
ENCODING 309
SWIDTH 520 0
DWIDTH 11 0
BBX 8 17 0 -4
BITMAP
04
0A
11
00
0E
02
02
02
02
02
02
02
02
02
82
46
3C
ENDCHAR
STARTCHAR Kcommaaccent
ENCODING 310
SWIDTH 520 0
DWIDTH 11 0
BBX 8 17 1 -4
BITMAP
83
86
8C
98
90
A0
F0
D0
88
8C
86
82
83
00
18
30
30
ENDCHAR
STARTCHAR kcommaaccent
ENCODING 311
SWIDTH 520 0
DWIDTH 11 0
BBX 8 17 1 -4
BITMAP
80
80
80
80
83
84
98
B0
F0
D8
8C
86
83
00
18
30
30
ENDCHAR
STARTCHAR kgreenlandic
ENCODING 312
SWIDTH 520 0
DWIDTH 11 0
BBX 8 9 1 0
BITMAP
83
84
88
B0
F0
D8
8C
86
83
ENDCHAR
STARTCHAR Lacute
ENCODING 313
SWIDTH 520 0
DWIDTH 11 0
BBX 8 17 1 0
BITMAP
04
18
60
00
80
80
80
80
80
80
80
80
80
80
80
80
FF
ENDCHAR
STARTCHAR lacute
ENCODING 314
SWIDTH 520 0
DWIDTH 11 0
BBX 6 17 2 0
BITMAP
08
30
C0
00
F0
10
10
10
10
10
10
10
10
10
10
10
FC
ENDCHAR
STARTCHAR Lcommaaccent
ENCODING 315
SWIDTH 520 0
DWIDTH 11 0
BBX 8 17 1 -4
BITMAP
80
80
80
80
80
80
80
80
80
80
80
80
FF
00
18
30
30
ENDCHAR
STARTCHAR lcommaaccent
ENCODING 316
SWIDTH 520 0
DWIDTH 11 0
BBX 6 17 2 -4
BITMAP
F0
10
10
10
10
10
10
10
10
10
10
10
FC
00
30
60
60
ENDCHAR
STARTCHAR Lcaron
ENCODING 317
SWIDTH 520 0
DWIDTH 11 0
BBX 8 13 1 0
BITMAP
80
86
84
84
84
80
80
80
80
80
80
80
FF
ENDCHAR
STARTCHAR lcaron
ENCODING 318
SWIDTH 520 0
DWIDTH 11 0
BBX 7 13 2 0
BITMAP
F0
16
16
16
14
10
10
10
10
10
10
10
FC
ENDCHAR
STARTCHAR Ldot
ENCODING 319
SWIDTH 520 0
DWIDTH 11 0
BBX 8 13 1 0
BITMAP
80
80
80
80
80
8C
8C
80
80
80
80
80
FF
ENDCHAR
STARTCHAR ldot
ENCODING 320
SWIDTH 520 0
DWIDTH 11 0
BBX 9 13 2 0
BITMAP
F000
1000
1000
1000
1000
1000
1000
1180
1180
1000
1000
1000
FC00
ENDCHAR
STARTCHAR Lslash
ENCODING 321
SWIDTH 520 0
DWIDTH 11 0
BBX 10 13 -1 0
BITMAP
2000
2000
2000
2000
2000
3800
7000
E000
2000
2000
2000
2000
3FC0
ENDCHAR
STARTCHAR lslash
ENCODING 322
SWIDTH 520 0
DWIDTH 11 0
BBX 7 13 2 0
BITMAP
F0
10
10
10
10
16
7C
F0
10
10
20
20
FE
ENDCHAR
STARTCHAR Nacute
ENCODING 323
SWIDTH 520 0
DWIDTH 11 0
BBX 9 17 0 0
BITMAP
0200
0C00
3000
0000
C080
E080
F080
B080
B880
9880
9C80
8C80
8680
8680
8380
8380
8180
ENDCHAR
STARTCHAR nacute
ENCODING 324
SWIDTH 520 0
DWIDTH 11 0
BBX 9 13 0 0
BITMAP
0200
0C00
3000
0000
9F00
A180
C080
8080
8080
8080
8080
8080
8080
ENDCHAR
STARTCHAR Ncommaaccent
ENCODING 325
SWIDTH 520 0
DWIDTH 11 0
BBX 9 17 0 -4
BITMAP
C080
E080
F080
B080
B880
9880
9C80
8C80
8680
8680
8380
8380
8180
0000
0C00
1800
1800
ENDCHAR
STARTCHAR ncommaaccent
ENCODING 326
SWIDTH 520 0
DWIDTH 11 0
BBX 9 13 0 -4
BITMAP
9F00
A180
C080
8080
8080
8080
8080
8080
8080
0000
0C00
1800
1800
ENDCHAR
STARTCHAR Ncaron
ENCODING 327
SWIDTH 520 0
DWIDTH 11 0
BBX 9 17 0 0
BITMAP
2200
1400
0800
0000
C080
E080
F080
B080
B880
9880
9C80
8C80
8680
8680
8380
8380
8180
ENDCHAR
STARTCHAR ncaron
ENCODING 328
SWIDTH 520 0
DWIDTH 11 0
BBX 9 13 0 0
BITMAP
2200
1400
0800
0000
9F00
A180
C080
8080
8080
8080
8080
8080
8080
ENDCHAR
STARTCHAR napostrophe
ENCODING 329
SWIDTH 520 0
DWIDTH 11 0
BBX 9 15 0 0
BITMAP
C000
C000
8000
8000
0000
0000
9F00
A180
C080
8080
8080
8080
8080
8080
8080
ENDCHAR
STARTCHAR Eng
ENCODING 330
SWIDTH 520 0
DWIDTH 11 0
BBX 9 17 0 -4
BITMAP
C080
E080
F080
B080
9880
9880
8C80
8C80
8680
8280
8380
8180
8180
0080
0080
3100
1E00
ENDCHAR
STARTCHAR eng
ENCODING 331
SWIDTH 520 0
DWIDTH 11 0
BBX 9 13 0 -4
BITMAP
9F00
A180
C080
8080
8080
8080
8080
8080
8080
0080
0080
0100
0F00
ENDCHAR
STARTCHAR Omacron
ENCODING 332
SWIDTH 520 0
DWIDTH 11 0
BBX 10 16 0 0
BITMAP
3E00
0000
0000
1E00
2100
4080
8040
8040
8040
8040
8040
8040
8040
4080
6100
1E00
ENDCHAR
STARTCHAR omacron
ENCODING 333
SWIDTH 520 0
DWIDTH 11 0
BBX 9 12 0 0
BITMAP
3E00
0000
0000
3E00
4100
8080
8080
8080
8080
8080
4100
3E00
ENDCHAR
STARTCHAR Obreve
ENCODING 334
SWIDTH 520 0
DWIDTH 11 0
BBX 10 17 0 0
BITMAP
2200
1C00
0000
0000
1E00
2100
4080
8040
8040
8040
8040
8040
8040
8040
4080
6100
1E00
ENDCHAR
STARTCHAR obreve
ENCODING 335
SWIDTH 520 0
DWIDTH 11 0
BBX 9 13 0 0
BITMAP
2200
1C00
0000
0000
3E00
4100
8080
8080
8080
8080
8080
4100
3E00
ENDCHAR
STARTCHAR Ohungarumlaut
ENCODING 336
SWIDTH 520 0
DWIDTH 11 0
BBX 10 18 0 0
BITMAP
1B00
1300
3200
2600
0000
1E00
2100
4080
8040
8040
8040
8040
8040
8040
8040
4080
6100
1E00
ENDCHAR
STARTCHAR ohungarumlaut
ENCODING 337
SWIDTH 520 0
DWIDTH 11 0
BBX 9 14 0 0
BITMAP
1B00
1300
3200
2600
0000
3E00
4100
8080
8080
8080
8080
8080
4100
3E00
ENDCHAR
STARTCHAR OE
ENCODING 338
SWIDTH 520 0
DWIDTH 11 0
BBX 9 13 0 0
BITMAP
7F80
5800
8800
8800
8800
8800
8F00
8800
8800
8800
8800
9800
7F80
ENDCHAR
STARTCHAR oe
ENCODING 339
SWIDTH 520 0
DWIDTH 11 0
BBX 9 9 0 0
BITMAP
7700
9980
8880
8880
8F80
8800
8800
9580
7700
ENDCHAR
STARTCHAR Racute
ENCODING 340
SWIDTH 520 0
DWIDTH 11 0
BBX 9 17 0 0
BITMAP
0200
0C00
3000
0000
FE00
8100
8080
8080
8080
8100
FE00
9C00
8C00
8600
8600
8300
8180
ENDCHAR
STARTCHAR racute
ENCODING 341
SWIDTH 520 0
DWIDTH 11 0
BBX 10 13 0 0
BITMAP
0200
0C00
3000
0000
F7C0
1C00
1800
1000
1000
1000
1000
1000
FC00
ENDCHAR
STARTCHAR Rcommaaccent
ENCODING 342
SWIDTH 520 0
DWIDTH 11 0
BBX 9 17 0 -4
BITMAP
FE00
8100
8080
8080
8080
8100
FE00
9C00
8C00
8600
8600
8300
8180
0000
0C00
1800
1800
ENDCHAR
STARTCHAR rcommaaccent
ENCODING 343
SWIDTH 520 0
DWIDTH 11 0
BBX 10 13 0 -4
BITMAP
F7C0
1C00
1800
1000
1000
1000
1000
1000
FC00
0000
0C00
1800
1800
ENDCHAR
STARTCHAR Rcaron
ENCODING 344
SWIDTH 520 0
DWIDTH 11 0
BBX 9 17 0 0
BITMAP
2200
1400
0800
0000
FE00
8100
8080
8080
8080
8100
FE00
9C00
8C00
8600
8600
8300
8180
ENDCHAR
STARTCHAR rcaron
ENCODING 345
SWIDTH 520 0
DWIDTH 11 0
BBX 10 13 0 0
BITMAP
2200
1400
0800
0000
F7C0
1C00
1800
1000
1000
1000
1000
1000
FC00
ENDCHAR
STARTCHAR Sacute
ENCODING 346
SWIDTH 520 0
DWIDTH 10 0
BBX 8 17 0 0
BITMAP
02
0C
30
00
3D
43
81
81
80
60
18
06
01
81
81
C2
BC
ENDCHAR
STARTCHAR sacute
ENCODING 347
SWIDTH 520 0
DWIDTH 11 0
BBX 9 13 0 0
BITMAP
0200
0C00
3000
0000
7E00
8300
8000
C000
3E00
0180
0080
4080
3F00
ENDCHAR
STARTCHAR Scircumflex
ENCODING 348
SWIDTH 520 0
DWIDTH 10 0
BBX 8 17 0 0
BITMAP
08
14
22
00
3D
43
81
81
80
60
18
06
01
81
81
C2
BC
ENDCHAR
STARTCHAR scircumflex
ENCODING 349
SWIDTH 520 0
DWIDTH 11 0
BBX 9 13 0 0
BITMAP
0800
1400
2200
0000
7E00
8300
8000
C000
3E00
0180
0080
4080
3F00
ENDCHAR
STARTCHAR Scedilla
ENCODING 350
SWIDTH 520 0
DWIDTH 10 0
BBX 8 17 0 -4
BITMAP
3D
43
81
81
C0
70
1C
06
01
81
81
C3
BE
08
08
18
30
ENDCHAR
STARTCHAR scedilla
ENCODING 351
SWIDTH 520 0
DWIDTH 11 0
BBX 9 13 0 -4
BITMAP
7E00
8300
8000
C000
7E00
0780
0080
8080
FF00
1800
0800
1800
3000
ENDCHAR
STARTCHAR Scaron
ENCODING 352
SWIDTH 520 0
DWIDTH 10 0
BBX 8 17 0 0
BITMAP
22
14
08
00
3D
43
81
81
80
60
18
06
01
81
81
C2
BC
ENDCHAR
STARTCHAR scaron
ENCODING 353
SWIDTH 520 0
DWIDTH 11 0
BBX 9 13 0 0
BITMAP
2200
1400
0800
0000
7E00
8300
8000
C000
3E00
0180
0080
4080
3F00
ENDCHAR
STARTCHAR Tcommaaccent
ENCODING 354
SWIDTH 520 0
DWIDTH 11 0
BBX 9 17 0 -4
BITMAP
FF80
8880
8880
8880
0800
0800
0800
0800
0800
0800
0800
0800
3E00
0000
0C00
1800
1800
ENDCHAR
STARTCHAR tcommaaccent
ENCODING 355
SWIDTH 520 0
DWIDTH 11 0
BBX 9 17 0 -4
BITMAP
2000
2000
2000
2000
FE00
2000
2000
2000
2000
2000
2080
3100
1E00
0000
0C00
1800
1800
ENDCHAR
STARTCHAR Tcaron
ENCODING 356
SWIDTH 520 0
DWIDTH 11 0
BBX 9 17 0 0
BITMAP
2200
1400
0800
0000
FF80
8880
8880
8880
0800
0800
0800
0800
0800
0800
0800
0800
3E00
ENDCHAR
STARTCHAR tcaron
ENCODING 357
SWIDTH 520 0
DWIDTH 11 0
BBX 9 14 0 0
BITMAP
0180
2180
2180
2100
2000
FE00
2000
2000
2000
2000
2000
2080
3100
1E00
ENDCHAR
STARTCHAR Tbar
ENCODING 358
SWIDTH 520 0
DWIDTH 11 0
BBX 9 13 0 0
BITMAP
FF80
8880
8880
8880
0800
0800
3E00
0800
0800
0800
0800
0800
3E00
ENDCHAR
STARTCHAR tbar
ENCODING 359
SWIDTH 520 0
DWIDTH 11 0
BBX 9 13 0 0
BITMAP
2000
2000
2000
2000
FE00
2000
2000
2000
F800
2000
2080
3100
1E00
ENDCHAR
STARTCHAR Utilde
ENCODING 360
SWIDTH 520 0
DWIDTH 11 0
BBX 9 17 0 0
BITMAP
3000
4900
0600
0000
8080
8080
8080
8080
8080
8080
8080
8080
8080
8080
8080
4100
3E00
ENDCHAR
STARTCHAR utilde
ENCODING 361
SWIDTH 520 0
DWIDTH 11 0
BBX 9 13 0 0
BITMAP
3000
4900
0600
0000
8080
8080
8080
8080
8080
8080
8180
C280
7C80
ENDCHAR
STARTCHAR Umacron
ENCODING 362
SWIDTH 520 0
DWIDTH 11 0
BBX 9 16 0 0
BITMAP
3E00
0000
0000
8080
8080
8080
8080
8080
8080
8080
8080
8080
8080
8080
4100
3E00
ENDCHAR
STARTCHAR umacron
ENCODING 363
SWIDTH 520 0
DWIDTH 11 0
BBX 9 12 0 0
BITMAP
3E00
0000
0000
8080
8080
8080
8080
8080
8080
8180
C280
7C80
ENDCHAR
STARTCHAR Ubreve
ENCODING 364
SWIDTH 520 0
DWIDTH 11 0
BBX 9 17 0 0
BITMAP
2200
1C00
0000
0000
8080
8080
8080
8080
8080
8080
8080
8080
8080
8080
8080
4100
3E00
ENDCHAR
STARTCHAR ubreve
ENCODING 365
SWIDTH 520 0
DWIDTH 11 0
BBX 9 13 0 0
BITMAP
2200
1C00
0000
0000
8080
8080
8080
8080
8080
8080
8180
C280
7C80
ENDCHAR
STARTCHAR Uring
ENCODING 366
SWIDTH 520 0
DWIDTH 11 0
BBX 9 19 0 0
BITMAP
1C00
1200
1200
1200
1C00
0000
8080
8080
8080
8080
8080
8080
8080
8080
8080
8080
8080
4100
3E00
ENDCHAR
STARTCHAR uring
ENCODING 367
SWIDTH 520 0
DWIDTH 11 0
BBX 9 15 0 0
BITMAP
1C00
1200
1200
1200
1C00
0000
8080
8080
8080
8080
8080
8080
8180
C280
7C80
ENDCHAR
STARTCHAR Uhungarumlaut
ENCODING 368
SWIDTH 520 0
DWIDTH 11 0
BBX 9 18 0 0
BITMAP
1B00
1300
3200
2600
0000
8080
8080
8080
8080
8080
8080
8080
8080
8080
8080
8080
4100
3E00
ENDCHAR
STARTCHAR uhungarumlaut
ENCODING 369
SWIDTH 520 0
DWIDTH 11 0
BBX 9 14 0 0
BITMAP
1B00
1300
3200
2600
0000
8080
8080
8080
8080
8080
8080
8180
C280
7C80
ENDCHAR
STARTCHAR Uogonek
ENCODING 370
SWIDTH 520 0
DWIDTH 10 0
BBX 7 17 1 -4
BITMAP
82
82
82
82
82
82
82
82
82
82
82
46
3C
08
08
08
06
ENDCHAR
STARTCHAR uogonek
ENCODING 371
SWIDTH 520 0
DWIDTH 11 0
BBX 9 13 1 -4
BITMAP
8200
8200
8200
8200
8200
8200
8600
C600
7A00
0200
0200
0200
0180
ENDCHAR
STARTCHAR Wcircumflex
ENCODING 372
SWIDTH 520 0
DWIDTH 11 0
BBX 11 17 -1 0
BITMAP
0400
0A00
1100
0000
C060
4040
4040
4040
6440
64C0
2EC0
2A80
2A80
2A80
3A80
3980
1180
ENDCHAR
STARTCHAR wcircumflex
ENCODING 373
SWIDTH 520 0
DWIDTH 11 0
BBX 9 13 0 0
BITMAP
0800
1400
2200
0000
8880
8C80
DC80
D580
5500
5500
5700
6300
2300
ENDCHAR
STARTCHAR Ycircumflex
ENCODING 374
SWIDTH 520 0
DWIDTH 11 0
BBX 9 17 0 0
BITMAP
0800
1400
2200
0000
F780
6300
2200
2200
1400
1400
0800
0800
0800
0800
0800
0800
3E00
ENDCHAR
STARTCHAR ycircumflex
ENCODING 375
SWIDTH 520 0
DWIDTH 11 0
BBX 9 17 0 -4
BITMAP
0800
1400
2200
0000
8080
C180
4100
6300
2200
3200
3600
1400
1C00
0800
1800
1000
F000
ENDCHAR
STARTCHAR Ydieresis
ENCODING 376
SWIDTH 520 0
DWIDTH 11 0
BBX 9 17 0 0
BITMAP
3200
0000
0000
0000
F780
6300
2200
2200
1400
1400
0800
0800
0800
0800
0800
0800
3E00
ENDCHAR
STARTCHAR Zacute
ENCODING 377
SWIDTH 520 0
DWIDTH 11 0
BBX 9 17 0 0
BITMAP
0200
0C00
3000
0000
FF80
8180
8300
8600
0600
0C00
1800
1800
3000
2080
6080
C080
FF80
ENDCHAR
STARTCHAR zacute
ENCODING 378
SWIDTH 520 0
DWIDTH 11 0
BBX 9 13 0 0
BITMAP
0200
0C00
3000
0000
FF80
8380
8700
8E00
1C00
3880
7080
E080
FF80
ENDCHAR
STARTCHAR Zdotaccent
ENCODING 379
SWIDTH 520 0
DWIDTH 11 0
BBX 9 17 0 0
BITMAP
0800
0800
0000
0000
FF80
8180
8300
8600
0600
0C00
1800
1800
3000
2080
6080
C080
FF80
ENDCHAR
STARTCHAR zdotaccent
ENCODING 380
SWIDTH 520 0
DWIDTH 11 0
BBX 9 13 0 0
BITMAP
0800
0800
0000
0000
FF80
8380
8700
8E00
1C00
3880
7080
E080
FF80
ENDCHAR
STARTCHAR Zcaron
ENCODING 381
SWIDTH 520 0
DWIDTH 11 0
BBX 9 17 0 0
BITMAP
2200
1400
0800
0000
FF80
8180
8300
8600
0600
0C00
1800
1800
3000
2080
6080
C080
FF80
ENDCHAR
STARTCHAR zcaron
ENCODING 382
SWIDTH 520 0
DWIDTH 11 0
BBX 9 13 0 0
BITMAP
2200
1400
0800
0000
FF80
8380
8700
8E00
1C00
3880
7080
E080
FF80
ENDCHAR
STARTCHAR longs
ENCODING 383
SWIDTH 520 0
DWIDTH 11 0
BBX 8 13 2 0
BITMAP
0F
18
10
10
F0
10
10
10
10
10
10
10
FC
ENDCHAR
STARTCHAR florin
ENCODING 402
SWIDTH 520 0
DWIDTH 11 0
BBX 9 17 0 -4
BITMAP
0780
0C00
0800
0800
3F80
0800
0800
0800
0800
0800
0800
0800
0800
0800
0800
1800
F000
ENDCHAR
STARTCHAR AEacute
ENCODING 508
SWIDTH 520 0
DWIDTH 11 0
BBX 10 17 -1 0
BITMAP
0100
0600
1800
0000
0FC0
0C00
1C00
1400
1400
3400
3780
2400
3C00
6400
4400
4400
C7C0
ENDCHAR
STARTCHAR aeacute
ENCODING 509
SWIDTH 520 0
DWIDTH 11 0
BBX 9 13 0 0
BITMAP
0200
0C00
3000
0000
7700
8980
0880
0880
7F80
8800
8800
9880
7700
ENDCHAR
STARTCHAR Oslashacute
ENCODING 510
SWIDTH 520 0
DWIDTH 11 0
BBX 10 17 0 0
BITMAP
0200
0C00
3000
0000
1E40
2140
40C0
C1C0
8340
8640
8C40
9840
B040
E0C0
C080
A180
9E00
ENDCHAR
STARTCHAR oslashacute
ENCODING 511
SWIDTH 520 0
DWIDTH 11 0
BBX 9 13 0 0
BITMAP
0200
0C00
3000
0000
3E80
4380
8380
8680
9C80
B080
E080
E100
BE00
ENDCHAR
STARTCHAR Scommaaccent
ENCODING 536
SWIDTH 520 0
DWIDTH 10 0
BBX 8 17 0 -4
BITMAP
3D
43
81
81
80
60
18
06
01
81
81
C2
BC
00
0C
18
18
ENDCHAR
STARTCHAR scommaaccent
ENCODING 537
SWIDTH 520 0
DWIDTH 11 0
BBX 9 13 0 -4
BITMAP
7E00
8300
8000
C000
3E00
0180
0080
4080
3F00
0000
0C00
1800
1800
ENDCHAR
STARTCHAR uni021A
ENCODING 538
SWIDTH 520 0
DWIDTH 11 0
BBX 9 17 0 -4
BITMAP
FF80
8880
8880
8880
0800
0800
0800
0800
0800
0800
0800
0800
3E00
0000
0C00
1800
1800
ENDCHAR
STARTCHAR uni021B
ENCODING 539
SWIDTH 520 0
DWIDTH 11 0
BBX 9 17 0 -4
BITMAP
2000
2000
2000
2000
FE00
2000
2000
2000
2000
2000
2080
3100
1E00
0000
0C00
1800
1800
ENDCHAR
STARTCHAR circumflex
ENCODING 710
SWIDTH 520 0
DWIDTH 11 0
BBX 5 3 2 10
BITMAP
20
50
88
ENDCHAR
STARTCHAR caron
ENCODING 711
SWIDTH 520 0
DWIDTH 11 0
BBX 5 3 2 10
BITMAP
88
50
20
ENDCHAR
STARTCHAR breve
ENCODING 728
SWIDTH 520 0
DWIDTH 11 0
BBX 5 2 2 11
BITMAP
88
70
ENDCHAR
STARTCHAR dotaccent
ENCODING 729
SWIDTH 520 0
DWIDTH 11 0
BBX 1 2 4 11
BITMAP
80
80
ENDCHAR
STARTCHAR ring
ENCODING 730
SWIDTH 520 0
DWIDTH 11 0
BBX 4 5 3 10
BITMAP
E0
90
90
90
E0
ENDCHAR
STARTCHAR ogonek
ENCODING 731
SWIDTH 520 0
DWIDTH 11 0
BBX 3 4 7 -4
BITMAP
80
80
80
60
ENDCHAR
STARTCHAR tilde
ENCODING 732
SWIDTH 520 0
DWIDTH 11 0
BBX 7 3 1 10
BITMAP
60
92
0C
ENDCHAR
STARTCHAR hungarumlaut
ENCODING 733
SWIDTH 520 0
DWIDTH 11 0
BBX 6 4 2 10
BITMAP
6C
4C
C8
98
ENDCHAR
STARTCHAR tonos
ENCODING 900
SWIDTH 520 0
DWIDTH 11 0
BBX 2 4 4 11
BITMAP
C0
80
80
80
ENDCHAR
STARTCHAR dieresistonos
ENCODING 901
SWIDTH 520 0
DWIDTH 11 0
BBX 9 3 0 12
BITMAP
0C00
0800
8980
ENDCHAR
STARTCHAR Alphatonos
ENCODING 902
SWIDTH 520 0
DWIDTH 11 0
BBX 11 15 -1 0
BITMAP
6000
6000
6600
4E00
0A00
0B00
1900
1100
1180
3080
3F80
20C0
6040
4040
C060
ENDCHAR
STARTCHAR Epsilontonos
ENCODING 904
SWIDTH 520 0
DWIDTH 11 0
BBX 11 15 -2 0
BITMAP
C000
C000
DFE0
D000
1000
1000
1000
1000
1F80
1000
1000
1000
1000
1000
1FE0
ENDCHAR
STARTCHAR Etatonos
ENCODING 905
SWIDTH 520 0
DWIDTH 11 0
BBX 11 15 -2 0
BITMAP
C000
C000
E020
E020
2020
2020
2020
2020
3FE0
2020
2020
2020
2020
2020
2020
ENDCHAR
STARTCHAR Iotatonos
ENCODING 906
SWIDTH 520 0
DWIDTH 11 0
BBX 7 15 0 0
BITMAP
C0
C0
FE
88
08
08
08
08
08
08
08
08
08
08
3E
ENDCHAR
STARTCHAR Omicrontonos
ENCODING 908
SWIDTH 520 0
DWIDTH 11 0
BBX 12 15 -2 0
BITMAP
C000
C000
C780
8840
1020
2010
2010
2010
2010
2010
2010
2010
1020
1840
0780
ENDCHAR
STARTCHAR Upsilontonos
ENCODING 910
SWIDTH 520 0
DWIDTH 11 0
BBX 11 15 -2 0
BITMAP
C000
C000
FDE0
98C0
0880
0880
0500
0500
0200
0200
0200
0200
0200
0200
0F80
ENDCHAR
STARTCHAR Omegatonos
ENCODING 911
SWIDTH 520 0
DWIDTH 11 0
BBX 11 15 -2 0
BITMAP
C000
C000
C700
98C0
1040
2020
2020
2020
2020
2020
1020
1840
0CC0
0480
3CE0
ENDCHAR
STARTCHAR iotadieresistonos
ENCODING 912
SWIDTH 520 0
DWIDTH 11 0
BBX 9 15 0 0
BITMAP
0C00
0800
8980
0000
0000
0000
3800
0800
0800
0800
0800
0800
0800
0800
0600
ENDCHAR
STARTCHAR Alpha
ENCODING 913
SWIDTH 520 0
DWIDTH 11 0
BBX 11 13 -1 0
BITMAP
0600
0E00
0A00
0B00
1900
1100
1180
3080
3F80
20C0
6040
4040
C060
ENDCHAR
STARTCHAR Beta
ENCODING 914
SWIDTH 520 0
DWIDTH 10 0
BBX 7 13 1 0
BITMAP
FC
86
82
82
82
84
F8
84
82
82
82
86
FC
ENDCHAR
STARTCHAR Gamma
ENCODING 915
SWIDTH 520 0
DWIDTH 11 0
BBX 8 13 1 0
BITMAP
FF
80
80
80
80
80
80
80
80
80
80
80
80
ENDCHAR
STARTCHAR uni0394
ENCODING 916
SWIDTH 520 0
DWIDTH 11 0
BBX 11 13 -1 0
BITMAP
0600
0E00
0A00
0B00
1B00
1100
1180
3180
2080
20C0
60C0
4040
FFE0
ENDCHAR
STARTCHAR Epsilon
ENCODING 917
SWIDTH 520 0
DWIDTH 11 0
BBX 8 13 1 0
BITMAP
FF
80
80
80
80
80
FC
80
80
80
80
80
FF
ENDCHAR
STARTCHAR Zeta
ENCODING 918
SWIDTH 520 0
DWIDTH 11 0
BBX 9 13 0 0
BITMAP
FF80
8180
8300
8600
0600
0C00
1800
1800
3000
2080
6080
C080
FF80
ENDCHAR
STARTCHAR Eta
ENCODING 919
SWIDTH 520 0
DWIDTH 11 0
BBX 9 13 0 0
BITMAP
8080
8080
8080
8080
8080
8080
FF80
8080
8080
8080
8080
8080
8080
ENDCHAR
STARTCHAR Theta
ENCODING 920
SWIDTH 520 0
DWIDTH 11 0
BBX 10 13 0 0
BITMAP
1E00
2100
4080
8040
8040
8040
BE40
8040
8040
8040
4080
6100
1E00
ENDCHAR
STARTCHAR Iota
ENCODING 921
SWIDTH 520 0
DWIDTH 11 0
BBX 5 13 2 0
BITMAP
F8
20
20
20
20
20
20
20
20
20
20
20
F8
ENDCHAR
STARTCHAR Kappa
ENCODING 922
SWIDTH 520 0
DWIDTH 11 0
BBX 8 13 1 0
BITMAP
83
86
8C
98
90
A0
F0
D0
88
8C
86
82
83
ENDCHAR
STARTCHAR Lambda
ENCODING 923
SWIDTH 520 0
DWIDTH 11 0
BBX 11 13 -1 0
BITMAP
0600
0E00
0A00
0B00
1900
1100
1180
3080
2080
20C0
60C0
4040
C060
ENDCHAR
STARTCHAR Mu
ENCODING 924
SWIDTH 520 0
DWIDTH 11 0
BBX 9 13 0 0
BITMAP
C180
C180
E380
A280
B680
B680
9480
9C80
8880
8080
8080
8080
8080
ENDCHAR
STARTCHAR Nu
ENCODING 925
SWIDTH 520 0
DWIDTH 11 0
BBX 9 13 0 0
BITMAP
C080
E080
F080
B080
B880
9880
9C80
8C80
8680
8680
8380
8380
8180
ENDCHAR
STARTCHAR Xi
ENCODING 926
SWIDTH 520 0
DWIDTH 11 0
BBX 9 13 0 0
BITMAP
FF80
8080
8080
0000
0000
0000
3E00
0000
0000
0000
8080
8080
FF80
ENDCHAR
STARTCHAR Omicron
ENCODING 927
SWIDTH 520 0
DWIDTH 11 0
BBX 10 13 0 0
BITMAP
1E00
2100
4080
8040
8040
8040
8040
8040
8040
8040
4080
6100
1E00
ENDCHAR
STARTCHAR Pi
ENCODING 928
SWIDTH 520 0
DWIDTH 11 0
BBX 9 13 0 0
BITMAP
FF80
8080
8080
8080
8080
8080
8080
8080
8080
8080
8080
8080
8080
ENDCHAR
STARTCHAR Rho
ENCODING 929
SWIDTH 520 0
DWIDTH 11 0
BBX 9 13 0 0
BITMAP
FE00
8100
8080
8080
8080
8100
FE00
8000
8000
8000
8000
8000
8000
ENDCHAR
STARTCHAR Sigma
ENCODING 931
SWIDTH 520 0
DWIDTH 11 0
BBX 8 13 1 0
BITMAP
FF
C1
41
61
30
30
18
30
30
61
41
C1
FF
ENDCHAR
STARTCHAR Tau
ENCODING 932
SWIDTH 520 0
DWIDTH 11 0
BBX 9 13 0 0
BITMAP
FF80
8880
8880
8880
0800
0800
0800
0800
0800
0800
0800
0800
3E00
ENDCHAR
STARTCHAR Upsilon
ENCODING 933
SWIDTH 520 0
DWIDTH 11 0
BBX 9 13 0 0
BITMAP
F780
6300
2200
2200
1400
1400
0800
0800
0800
0800
0800
0800
3E00
ENDCHAR
STARTCHAR Phi
ENCODING 934
SWIDTH 520 0
DWIDTH 11 0
BBX 9 13 0 0
BITMAP
0800
0800
3E00
4900
8880
8880
8880
8880
8880
4900
3E00
0800
0800
ENDCHAR
STARTCHAR Chi
ENCODING 935
SWIDTH 520 0
DWIDTH 11 0
BBX 9 13 0 0
BITMAP
F780
6300
2200
3600
1400
1C00
0800
1C00
1400
3600
2200
6300
E380
ENDCHAR
STARTCHAR Psi
ENCODING 936
SWIDTH 520 0
DWIDTH 11 0
BBX 7 13 1 0
BITMAP
92
92
92
92
92
92
92
D6
7C
38
10
10
10
ENDCHAR
STARTCHAR uni03A9
ENCODING 937
SWIDTH 520 0
DWIDTH 11 0
BBX 9 13 0 0
BITMAP
1C00
6300
4100
8080
8080
8080
8080
8080
4080
6100
3300
1200
F380
ENDCHAR
STARTCHAR Iotadieresis
ENCODING 938
SWIDTH 520 0
DWIDTH 11 0
BBX 5 17 2 0
BITMAP
C8
00
00
00
F8
20
20
20
20
20
20
20
20
20
20
20
F8
ENDCHAR
STARTCHAR Upsilondieresis
ENCODING 939
SWIDTH 520 0
DWIDTH 11 0
BBX 9 17 0 0
BITMAP
3200
0000
0000
0000
F780
6300
2200
2200
1400
1400
0800
0800
0800
0800
0800
0800
3E00
ENDCHAR
STARTCHAR alphatonos
ENCODING 940
SWIDTH 520 0
DWIDTH 11 0
BBX 9 15 0 0
BITMAP
0C00
0800
0800
0800
0000
0000
3C80
4780
8700
8300
8300
8300
8700
4780
3C80
ENDCHAR
STARTCHAR epsilontonos
ENCODING 941
SWIDTH 520 0
DWIDTH 11 0
BBX 8 15 0 0
BITMAP
0C
08
08
08
00
00
7E
C3
80
C0
3C
C0
80
83
7E
ENDCHAR
STARTCHAR etatonos
ENCODING 942
SWIDTH 520 0
DWIDTH 11 0
BBX 9 19 0 -4
BITMAP
0C00
0800
0800
0800
0000
0000
CF00
3180
2080
2080
2080
2080
2080
2080
2080
0080
0080
0080
0080
ENDCHAR
STARTCHAR iotatonos
ENCODING 943
SWIDTH 520 0
DWIDTH 11 0
BBX 5 15 2 0
BITMAP
30
20
20
20
00
00
E0
20
20
20
20
20
20
20
18
ENDCHAR
STARTCHAR upsilondieresistonos
ENCODING 944
SWIDTH 520 0
DWIDTH 11 0
BBX 9 15 0 0
BITMAP
0C00
0800
8980
0000
0000
0000
8180
8080
8080
8080
8080
8080
8100
4100
3E00
ENDCHAR
STARTCHAR alpha
ENCODING 945
SWIDTH 520 0
DWIDTH 11 0
BBX 9 9 0 0
BITMAP
3C80
4780
8700
8300
8300
8300
8700
4780
3C80
ENDCHAR
STARTCHAR beta
ENCODING 946
SWIDTH 520 0
DWIDTH 11 0
BBX 8 17 1 -4
BITMAP
38
44
82
82
82
86
9C
82
81
81
81
C3
FC
80
80
80
80
ENDCHAR
STARTCHAR gamma
ENCODING 947
SWIDTH 520 0
DWIDTH 11 0
BBX 8 13 0 -4
BITMAP
C1
41
61
23
22
32
16
14
0C
08
08
08
08
ENDCHAR
STARTCHAR delta
ENCODING 948
SWIDTH 520 0
DWIDTH 11 0
BBX 8 13 1 0
BITMAP
3C
40
40
20
18
3C
42
81
81
81
81
42
3C
ENDCHAR
STARTCHAR epsilon
ENCODING 949
SWIDTH 520 0
DWIDTH 11 0
BBX 8 9 0 0
BITMAP
7E
C3
80
C0
3C
C0
80
83
7E
ENDCHAR
STARTCHAR zeta
ENCODING 950
SWIDTH 520 0
DWIDTH 11 0
BBX 9 17 0 -4
BITMAP
7F80
0700
0C00
3000
6000
4000
8000
8000
8000
8000
4000
6000
1F00
0080
0080
0080
0100
ENDCHAR
STARTCHAR eta
ENCODING 951
SWIDTH 520 0
DWIDTH 11 0
BBX 9 13 0 -4
BITMAP
CF00
3180
2080
2080
2080
2080
2080
2080
2080
0080
0080
0080
0080
ENDCHAR
STARTCHAR theta
ENCODING 952
SWIDTH 520 0
DWIDTH 11 0
BBX 9 13 0 0
BITMAP
3E00
6300
4100
8080
8080
8080
FF80
8080
8080
8080
4100
6300
3E00
ENDCHAR
STARTCHAR iota
ENCODING 953
SWIDTH 520 0
DWIDTH 11 0
BBX 5 9 2 0
BITMAP
E0
20
20
20
20
20
20
20
18
ENDCHAR
STARTCHAR kappa
ENCODING 954
SWIDTH 520 0
DWIDTH 11 0
BBX 8 9 1 0
BITMAP
83
84
88
B0
F0
D8
8C
86
83
ENDCHAR
STARTCHAR lambda
ENCODING 955
SWIDTH 520 0
DWIDTH 11 0
BBX 9 13 0 0
BITMAP
F000
1000
1800
0800
1C00
1400
3600
3200
2200
6300
4100
C180
8080
ENDCHAR
STARTCHAR uni03BC
ENCODING 956
SWIDTH 520 0
DWIDTH 11 0
BBX 9 13 0 -4
BITMAP
8200
8200
8200
8200
8200
8200
8200
C600
FB80
8000
8000
8000
8000
ENDCHAR
STARTCHAR nu
ENCODING 957
SWIDTH 520 0
DWIDTH 11 0
BBX 9 9 0 0
BITMAP
C180
4100
6100
6300
2300
3200
1600
1400
0800
ENDCHAR
STARTCHAR xi
ENCODING 958
SWIDTH 520 0
DWIDTH 11 0
BBX 9 17 0 -4
BITMAP
3E00
4000
8000
8000
8000
4000
3C00
6000
8000
8000
8000
4000
3F00
0080
0080
0080
0100
ENDCHAR
STARTCHAR omicron
ENCODING 959
SWIDTH 520 0
DWIDTH 11 0
BBX 9 9 0 0
BITMAP
3E00
4100
8080
8080
8080
8080
8080
4100
3E00
ENDCHAR
STARTCHAR pi
ENCODING 960
SWIDTH 520 0
DWIDTH 11 0
BBX 9 9 0 0
BITMAP
FF80
2200
2200
2200
2200
2200
2200
2200
2180
ENDCHAR
STARTCHAR rho
ENCODING 961
SWIDTH 520 0
DWIDTH 11 0
BBX 9 13 0 -4
BITMAP
3E00
4100
8080
8080
8080
8080
8080
C100
FE00
8000
8000
8000
8000
ENDCHAR
STARTCHAR sigma1
ENCODING 962
SWIDTH 520 0
DWIDTH 11 0
BBX 9 13 0 -4
BITMAP
1F00
6180
8000
8000
8000
8000
8000
6000
1F00
0080
0080
0080
0100
ENDCHAR
STARTCHAR sigma
ENCODING 963
SWIDTH 520 0
DWIDTH 11 0
BBX 10 9 0 0
BITMAP
3FC0
4200
8100
8080
8080
8080
8080
4100
3E00
ENDCHAR
STARTCHAR tau
ENCODING 964
SWIDTH 520 0
DWIDTH 11 0
BBX 9 9 0 0
BITMAP
FF80
0800
0800
0800
0800
0800
0800
0800
0600
ENDCHAR
STARTCHAR upsilon
ENCODING 965
SWIDTH 520 0
DWIDTH 11 0
BBX 9 9 0 0
BITMAP
8180
8080
8080
8080
8080
8080
8100
4100
3E00
ENDCHAR
STARTCHAR phi
ENCODING 966
SWIDTH 520 0
DWIDTH 11 0
BBX 9 13 0 -4
BITMAP
0E00
4900
8880
8880
8880
8880
8880
4900
3E00
0800
0800
0800
0800
ENDCHAR
STARTCHAR chi
ENCODING 967
SWIDTH 520 0
DWIDTH 11 0
BBX 9 13 0 -4
BITMAP
C180
4100
6300
2200
1600
1C00
0800
1C00
1600
2200
6300
4100
C180
ENDCHAR
STARTCHAR psi
ENCODING 968
SWIDTH 520 0
DWIDTH 11 0
BBX 7 15 1 -4
BITMAP
10
10
92
92
92
92
92
92
92
D6
7C
10
10
10
10
ENDCHAR
STARTCHAR omega
ENCODING 969
SWIDTH 520 0
DWIDTH 11 0
BBX 9 9 0 0
BITMAP
C180
8080
8880
8880
8880
8880
8880
9480
7700
ENDCHAR
STARTCHAR iotadieresis
ENCODING 970
SWIDTH 520 0
DWIDTH 11 0
BBX 5 13 2 0
BITMAP
C8
00
00
00
E0
20
20
20
20
20
20
20
18
ENDCHAR
STARTCHAR upsilondieresis
ENCODING 971
SWIDTH 520 0
DWIDTH 11 0
BBX 9 13 0 0
BITMAP
3200
0000
0000
0000
8180
8080
8080
8080
8080
8080
8100
4100
3E00
ENDCHAR
STARTCHAR omicrontonos
ENCODING 972
SWIDTH 520 0
DWIDTH 11 0
BBX 9 15 0 0
BITMAP
0C00
0800
0800
0800
0000
0000
3E00
4100
8080
8080
8080
8080
8080
4100
3E00
ENDCHAR
STARTCHAR upsilontonos
ENCODING 973
SWIDTH 520 0
DWIDTH 11 0
BBX 9 15 0 0
BITMAP
0C00
0800
0800
0800
0000
0000
8180
8080
8080
8080
8080
8080
8100
4100
3E00
ENDCHAR
STARTCHAR omegatonos
ENCODING 974
SWIDTH 520 0
DWIDTH 11 0
BBX 9 15 0 0
BITMAP
0C00
0800
0800
0800
0000
0000
C180
8080
8880
8880
8880
8880
8880
9480
7700
ENDCHAR
STARTCHAR afii10023
ENCODING 1025
SWIDTH 520 0
DWIDTH 11 0
BBX 8 17 1 0
BITMAP
64
00
00
00
FF
80
80
80
80
80
FC
80
80
80
80
80
FF
ENDCHAR
STARTCHAR afii10051
ENCODING 1026
SWIDTH 520 0
DWIDTH 11 0
BBX 11 13 -2 0
BITMAP
F800
2000
2000
2000
27C0
2860
3020
2020
2020
2020
2020
2020
21C0
ENDCHAR
STARTCHAR afii10052
ENCODING 1027
SWIDTH 520 0
DWIDTH 11 0
BBX 8 17 1 0
BITMAP
04
18
60
00
FF
80
80
80
80
80
80
80
80
80
80
80
80
ENDCHAR
STARTCHAR afii10053
ENCODING 1028
SWIDTH 520 0
DWIDTH 11 0
BBX 9 13 0 0
BITMAP
1E80
6380
4180
8080
8000
8000
FE00
8000
8000
8080
4180
6100
1E00
ENDCHAR
STARTCHAR afii10054
ENCODING 1029
SWIDTH 520 0
DWIDTH 10 0
BBX 8 13 0 0
BITMAP
3D
43
81
81
C0
70
1C
06
01
81
81
C2
BC
ENDCHAR
STARTCHAR afii10055
ENCODING 1030
SWIDTH 520 0
DWIDTH 11 0
BBX 5 13 2 0
BITMAP
F8
20
20
20
20
20
20
20
20
20
20
20
F8
ENDCHAR
STARTCHAR afii10056
ENCODING 1031
SWIDTH 520 0
DWIDTH 11 0
BBX 5 17 2 0
BITMAP
C8
00
00
00
F8
20
20
20
20
20
20
20
20
20
20
20
F8
ENDCHAR
STARTCHAR afii10057
ENCODING 1032
SWIDTH 520 0
DWIDTH 11 0
BBX 8 13 0 0
BITMAP
01
01
01
01
01
01
01
01
01
81
81
42
3C
ENDCHAR
STARTCHAR afii10058
ENCODING 1033
SWIDTH 520 0
DWIDTH 11 0
BBX 10 13 -1 0
BITMAP
3C00
2400
2400
2400
2400
2400
2780
24C0
2440
2440
2440
24C0
C780
ENDCHAR
STARTCHAR afii10059
ENCODING 1034
SWIDTH 520 0
DWIDTH 11 0
BBX 8 13 1 0
BITMAP
90
90
90
90
90
90
FE
93
91
91
91
93
9E
ENDCHAR
STARTCHAR afii10060
ENCODING 1035
SWIDTH 520 0
DWIDTH 11 0
BBX 11 13 -2 0
BITMAP
F800
2000
2000
2000
27C0
2860
3020
2020
2020
2020
2020
2020
2020
ENDCHAR
STARTCHAR afii10061
ENCODING 1036
SWIDTH 520 0
DWIDTH 11 0
BBX 8 17 1 0
BITMAP
04
18
60
00
83
86
8C
98
90
A0
F0
D0
88
8C
86
82
83
ENDCHAR
STARTCHAR afii10062
ENCODING 1038
SWIDTH 520 0
DWIDTH 11 0
BBX 9 17 0 0
BITMAP
2200
1C00
0000
0000
8080
C180
4100
6300
2200
3200
3600
1400
1C00
0800
1800
1000
F000
ENDCHAR
STARTCHAR afii10145
ENCODING 1039
SWIDTH 520 0
DWIDTH 11 0
BBX 7 16 1 -3
BITMAP
82
82
82
82
82
82
82
82
82
82
82
82
FE
10
10
10
ENDCHAR
STARTCHAR afii10017
ENCODING 1040
SWIDTH 520 0
DWIDTH 11 0
BBX 11 13 -1 0
BITMAP
0600
0E00
0A00
0B00
1900
1100
1180
3080
3F80
20C0
6040
4040
C060
ENDCHAR
STARTCHAR afii10018
ENCODING 1041
SWIDTH 520 0
DWIDTH 11 0
BBX 9 13 0 0
BITMAP
FF00
8000
8000
8000
8000
8000
FE00
8100
8080
8080
8080
8100
FE00
ENDCHAR
STARTCHAR afii10019
ENCODING 1042
SWIDTH 520 0
DWIDTH 10 0
BBX 7 13 1 0
BITMAP
FC
86
82
82
82
84
F8
84
82
82
82
86
FC
ENDCHAR
STARTCHAR afii10020
ENCODING 1043
SWIDTH 520 0
DWIDTH 11 0
BBX 8 13 1 0
BITMAP
FF
80
80
80
80
80
80
80
80
80
80
80
80
ENDCHAR
STARTCHAR afii10021
ENCODING 1044
SWIDTH 520 0
DWIDTH 11 0
BBX 9 16 0 -3
BITMAP
3E00
2200
2200
2200
2200
2200
2200
2200
2200
4200
4200
8200
FF80
8080
8080
8080
ENDCHAR
STARTCHAR afii10022
ENCODING 1045
SWIDTH 520 0
DWIDTH 11 0
BBX 8 13 1 0
BITMAP
FF
80
80
80
80
80
FC
80
80
80
80
80
FF
ENDCHAR
STARTCHAR afii10024
ENCODING 1046
SWIDTH 520 0
DWIDTH 11 0
BBX 10 13 0 0
BITMAP
88C0
C980
4900
6B00
2A00
1C00
3E00
2A00
6B00
4900
4900
C980
88C0
ENDCHAR
STARTCHAR afii10025
ENCODING 1047
SWIDTH 520 0
DWIDTH 11 0
BBX 8 13 1 0
BITMAP
BC
E2
C1
81
01
02
0C
02
01
81
81
C2
3C
ENDCHAR
STARTCHAR afii10026
ENCODING 1048
SWIDTH 520 0
DWIDTH 11 0
BBX 9 13 0 0
BITMAP
8180
8380
8780
8680
8E80
8C80
9C80
9880
B080
B080
E080
E080
C080
ENDCHAR
STARTCHAR afii10027
ENCODING 1049
SWIDTH 520 0
DWIDTH 11 0
BBX 9 17 0 0
BITMAP
2200
1C00
0000
0000
8180
8380
8780
8680
8E80
8C80
9C80
9880
B080
B080
E080
E080
C080
ENDCHAR
STARTCHAR afii10028
ENCODING 1050
SWIDTH 520 0
DWIDTH 11 0
BBX 8 13 1 0
BITMAP
83
86
8C
98
90
A0
F0
D0
88
8C
86
82
83
ENDCHAR
STARTCHAR afii10029
ENCODING 1051
SWIDTH 520 0
DWIDTH 11 0
BBX 9 13 0 0
BITMAP
3F80
2080
2080
2080
2080
2080
2080
2080
2080
2080
2080
2080
C080
ENDCHAR
STARTCHAR afii10030
ENCODING 1052
SWIDTH 520 0
DWIDTH 11 0
BBX 9 13 0 0
BITMAP
C180
C180
E380
A280
B680
B680
9480
9C80
8880
8080
8080
8080
8080
ENDCHAR
STARTCHAR afii10031
ENCODING 1053
SWIDTH 520 0
DWIDTH 11 0
BBX 9 13 0 0
BITMAP
8080
8080
8080
8080
8080
8080
FF80
8080
8080
8080
8080
8080
8080
ENDCHAR
STARTCHAR afii10032
ENCODING 1054
SWIDTH 520 0
DWIDTH 11 0
BBX 10 13 0 0
BITMAP
1E00
2100
4080
8040
8040
8040
8040
8040
8040
8040
4080
6100
1E00
ENDCHAR
STARTCHAR afii10033
ENCODING 1055
SWIDTH 520 0
DWIDTH 11 0
BBX 9 13 0 0
BITMAP
FF80
8080
8080
8080
8080
8080
8080
8080
8080
8080
8080
8080
8080
ENDCHAR
STARTCHAR afii10034
ENCODING 1056
SWIDTH 520 0
DWIDTH 11 0
BBX 9 13 0 0
BITMAP
FE00
8100
8080
8080
8080
8100
FE00
8000
8000
8000
8000
8000
8000
ENDCHAR
STARTCHAR afii10035
ENCODING 1057
SWIDTH 520 0
DWIDTH 11 0
BBX 9 13 0 0
BITMAP
1E80
6180
4080
8080
8000
8000
8000
8000
8000
8080
4180
6100
1E00
ENDCHAR
STARTCHAR afii10036
ENCODING 1058
SWIDTH 520 0
DWIDTH 11 0
BBX 9 13 0 0
BITMAP
FF80
8880
8880
8880
0800
0800
0800
0800
0800
0800
0800
0800
3E00
ENDCHAR
STARTCHAR afii10037
ENCODING 1059
SWIDTH 520 0
DWIDTH 11 0
BBX 9 13 0 0
BITMAP
8080
C180
4100
6300
2200
3200
3600
1400
1C00
0800
1800
1000
F000
ENDCHAR
STARTCHAR afii10038
ENCODING 1060
SWIDTH 520 0
DWIDTH 11 0
BBX 9 13 0 0
BITMAP
0800
0800
3E00
4900
8880
8880
8880
8880
8880
4900
3E00
0800
0800
ENDCHAR
STARTCHAR afii10039
ENCODING 1061
SWIDTH 520 0
DWIDTH 11 0
BBX 9 13 0 0
BITMAP
F780
6300
2200
3600
1400
1C00
0800
1C00
1400
3600
2200
6300
E380
ENDCHAR
STARTCHAR afii10040
ENCODING 1062
SWIDTH 520 0
DWIDTH 11 0
BBX 9 16 1 -3
BITMAP
8200
8200
8200
8200
8200
8200
8200
8200
8200
8200
8200
8200
FF80
0080
0080
0080
ENDCHAR
STARTCHAR afii10041
ENCODING 1063
SWIDTH 520 0
DWIDTH 11 0
BBX 9 13 0 0
BITMAP
8080
8080
8080
8080
8080
8080
8080
8380
4280
3C80
0080
0080
0080
ENDCHAR
STARTCHAR afii10042
ENCODING 1064
SWIDTH 520 0
DWIDTH 11 0
BBX 9 13 0 0
BITMAP
8880
8880
8880
8880
8880
8880
8880
8880
8880
8880
8880
8880
FF80
ENDCHAR
STARTCHAR afii10043
ENCODING 1065
SWIDTH 520 0
DWIDTH 11 0
BBX 10 16 0 -3
BITMAP
8880
8880
8880
8880
8880
8880
8880
8880
8880
8880
8880
8880
FFC0
0040
0040
0040
ENDCHAR
STARTCHAR afii10044
ENCODING 1066
SWIDTH 520 0
DWIDTH 11 0
BBX 9 13 0 0
BITMAP
E000
2000
2000
2000
2000
2000
3E00
2100
2080
2080
2080
2180
3E00
ENDCHAR
STARTCHAR afii10045
ENCODING 1067
SWIDTH 520 0
DWIDTH 11 0
BBX 9 13 0 0
BITMAP
8080
8080
8080
8080
8080
8080
F880
8C80
8480
8480
8480
8C80
F880
ENDCHAR
STARTCHAR afii10046
ENCODING 1068
SWIDTH 520 0
DWIDTH 11 0
BBX 9 13 0 0
BITMAP
8000
8000
8000
8000
8000
8000
FE00
8100
8080
8080
8080
8100
FE00
ENDCHAR
STARTCHAR afii10047
ENCODING 1069
SWIDTH 520 0
DWIDTH 11 0
BBX 9 13 0 0
BITMAP
BC00
E300
C100
8080
0080
0080
3F80
0080
0080
8080
C100
4300
3C00
ENDCHAR
STARTCHAR afii10048
ENCODING 1070
SWIDTH 520 0
DWIDTH 11 0
BBX 8 13 1 0
BITMAP
8E
8A
91
91
91
91
F1
91
91
91
91
8A
8E
ENDCHAR
STARTCHAR afii10049
ENCODING 1071
SWIDTH 520 0
DWIDTH 11 0
BBX 9 13 0 0
BITMAP
3F80
4080
8080
8080
8080
4080
3F80
1C80
1880
3080
3080
6080
C080
ENDCHAR
STARTCHAR afii10065
ENCODING 1072
SWIDTH 520 0
DWIDTH 11 0
BBX 9 9 0 0
BITMAP
3F00
6180
0080
0080
3F80
C080
8080
8380
7C80
ENDCHAR
STARTCHAR afii10066
ENCODING 1073
SWIDTH 520 0
DWIDTH 11 0
BBX 9 13 0 0
BITMAP
1F80
6000
8000
8000
BE00
C100
8080
8080
8080
8080
8080
4100
3E00
ENDCHAR
STARTCHAR afii10067
ENCODING 1074
SWIDTH 520 0
DWIDTH 11 0
BBX 8 9 1 0
BITMAP
FC
82
82
82
FC
83
81
81
FE
ENDCHAR
STARTCHAR afii10068
ENCODING 1075
SWIDTH 520 0
DWIDTH 11 0
BBX 8 9 1 0
BITMAP
FF
80
80
80
80
80
80
80
80
ENDCHAR
STARTCHAR afii10069
ENCODING 1076
SWIDTH 520 0
DWIDTH 11 0
BBX 9 12 0 -3
BITMAP
3E00
2200
2200
2200
2200
2200
4200
4200
FF80
8080
8080
8080
ENDCHAR
STARTCHAR afii10070
ENCODING 1077
SWIDTH 520 0
DWIDTH 11 0
BBX 9 9 0 0
BITMAP
3E00
6100
C180
8080
FF80
8000
C000
6180
3E00
ENDCHAR
STARTCHAR afii10072
ENCODING 1078
SWIDTH 520 0
DWIDTH 11 0
BBX 9 9 0 0
BITMAP
C980
4900
2A00
3E00
3E00
2A00
6B00
4900
C980
ENDCHAR
STARTCHAR afii10073
ENCODING 1079
SWIDTH 520 0
DWIDTH 11 0
BBX 8 9 1 0
BITMAP
3E
C1
01
01
1E
03
01
83
7E
ENDCHAR
STARTCHAR afii10074
ENCODING 1080
SWIDTH 520 0
DWIDTH 11 0
BBX 9 9 0 0
BITMAP
8380
8380
8680
8C80
9C80
B880
B080
E080
C080
ENDCHAR
STARTCHAR afii10075
ENCODING 1081
SWIDTH 520 0
DWIDTH 11 0
BBX 9 13 0 0
BITMAP
2200
1C00
0000
0000
8380
8380
8680
8C80
9C80
B880
B080
E080
C080
ENDCHAR
STARTCHAR afii10076
ENCODING 1082
SWIDTH 520 0
DWIDTH 11 0
BBX 8 9 1 0
BITMAP
83
84
88
B0
F0
D8
8C
86
83
ENDCHAR
STARTCHAR afii10077
ENCODING 1083
SWIDTH 520 0
DWIDTH 11 0
BBX 9 9 0 0
BITMAP
3F80
2080
2080
2080
2080
2080
2080
2080
C080
ENDCHAR
STARTCHAR afii10078
ENCODING 1084
SWIDTH 520 0
DWIDTH 11 0
BBX 9 9 0 0
BITMAP
C180
E380
E380
B680
9480
9C80
8880
8080
8080
ENDCHAR
STARTCHAR afii10079
ENCODING 1085
SWIDTH 520 0
DWIDTH 11 0
BBX 9 9 0 0
BITMAP
8080
8080
8080
8080
FF80
8080
8080
8080
8080
ENDCHAR
STARTCHAR afii10080
ENCODING 1086
SWIDTH 520 0
DWIDTH 11 0
BBX 9 9 0 0
BITMAP
3E00
4100
8080
8080
8080
8080
8080
4100
3E00
ENDCHAR
STARTCHAR afii10081
ENCODING 1087
SWIDTH 520 0
DWIDTH 11 0
BBX 9 9 0 0
BITMAP
FF80
8080
8080
8080
8080
8080
8080
8080
8080
ENDCHAR
STARTCHAR afii10082
ENCODING 1088
SWIDTH 520 0
DWIDTH 11 0
BBX 9 13 0 -4
BITMAP
BE00
C100
8080
8080
8080
8080
8080
C100
BE00
8000
8000
8000
8000
ENDCHAR
STARTCHAR afii10083
ENCODING 1089
SWIDTH 520 0
DWIDTH 11 0
BBX 9 9 0 0
BITMAP
3E80
4180
8080
8080
8000
8000
8000
4180
3F00
ENDCHAR
STARTCHAR afii10084
ENCODING 1090
SWIDTH 520 0
DWIDTH 11 0
BBX 9 9 0 0
BITMAP
FF80
8880
8880
8880
0800
0800
0800
0800
3E00
ENDCHAR
STARTCHAR afii10085
ENCODING 1091
SWIDTH 520 0
DWIDTH 11 0
BBX 9 13 0 -4
BITMAP
8080
C180
4100
6300
2200
3200
3600
1400
1C00
0800
1800
1000
F000
ENDCHAR
STARTCHAR afii10086
ENCODING 1092
SWIDTH 520 0
DWIDTH 11 0
BBX 9 17 0 -4
BITMAP
0800
0800
0800
0800
7F00
8880
8880
8880
8880
8880
8880
8880
7F00
0800
0800
0800
0800
ENDCHAR
STARTCHAR afii10087
ENCODING 1093
SWIDTH 520 0
DWIDTH 11 0
BBX 9 9 0 0
BITMAP
F780
2200
3600
1400
0800
1400
3600
2300
F380
ENDCHAR
STARTCHAR afii10088
ENCODING 1094
SWIDTH 520 0
DWIDTH 11 0
BBX 9 12 1 -3
BITMAP
8200
8200
8200
8200
8200
8200
8200
8200
FF80
0080
0080
0080
ENDCHAR
STARTCHAR afii10089
ENCODING 1095
SWIDTH 520 0
DWIDTH 11 0
BBX 9 9 0 0
BITMAP
8080
8080
8080
8180
C280
7C80
0080
0080
0080
ENDCHAR
STARTCHAR afii10090
ENCODING 1096
SWIDTH 520 0
DWIDTH 11 0
BBX 9 9 0 0
BITMAP
8880
8880
8880
8880
8880
8880
8880
8880
FF80
ENDCHAR
STARTCHAR afii10091
ENCODING 1097
SWIDTH 520 0
DWIDTH 11 0
BBX 10 12 0 -3
BITMAP
8880
8880
8880
8880
8880
8880
8880
8880
FFC0
0040
0040
0040
ENDCHAR
STARTCHAR afii10092
ENCODING 1098
SWIDTH 520 0
DWIDTH 11 0
BBX 9 9 0 0
BITMAP
E000
2000
2000
2000
3F00
2080
2080
2080
3F00
ENDCHAR
STARTCHAR afii10093
ENCODING 1099
SWIDTH 520 0
DWIDTH 11 0
BBX 9 9 0 0
BITMAP
8080
8080
8080
8080
F880
8480
8480
8480
F880
ENDCHAR
STARTCHAR afii10094
ENCODING 1100
SWIDTH 520 0
DWIDTH 11 0
BBX 9 9 0 0
BITMAP
8000
8000
8000
8000
FF00
8080
8080
8080
FF00
ENDCHAR
STARTCHAR afii10095
ENCODING 1101
SWIDTH 520 0
DWIDTH 11 0
BBX 9 9 0 0
BITMAP
3E00
C300
0180
0080
1F80
0080
0180
C300
3E00
ENDCHAR
STARTCHAR afii10096
ENCODING 1102
SWIDTH 520 0
DWIDTH 11 0
BBX 8 9 1 0
BITMAP
8E
99
91
91
F1
91
91
99
8E
ENDCHAR
STARTCHAR afii10097
ENCODING 1103
SWIDTH 520 0
DWIDTH 11 0
BBX 9 9 0 0
BITMAP
7F80
8080
8080
8080
7F80
1880
3080
6080
C080
ENDCHAR
STARTCHAR afii10071
ENCODING 1105
SWIDTH 520 0
DWIDTH 11 0
BBX 9 13 0 0
BITMAP
3200
0000
0000
0000
3E00
6100
C180
8080
FF80
8000
C000
6180
3E00
ENDCHAR
STARTCHAR afii10099
ENCODING 1106
SWIDTH 520 0
DWIDTH 11 0
BBX 11 17 -2 -4
BITMAP
2000
2000
F800
2000
27C0
2860
3020
2020
2020
2020
2020
2020
2020
0020
0020
0020
01C0
ENDCHAR
STARTCHAR afii10100
ENCODING 1107
SWIDTH 520 0
DWIDTH 11 0
BBX 8 13 1 0
BITMAP
04
18
60
00
FF
80
80
80
80
80
80
80
80
ENDCHAR
STARTCHAR afii10101
ENCODING 1108
SWIDTH 520 0
DWIDTH 11 0
BBX 9 9 0 0
BITMAP
3E00
6180
C000
8000
FC00
8000
C000
6180
3E00
ENDCHAR
STARTCHAR afii10102
ENCODING 1109
SWIDTH 520 0
DWIDTH 11 0
BBX 9 9 0 0
BITMAP
7E00
8300
8000
E000
7F00
0180
0080
4080
3F00
ENDCHAR
STARTCHAR afii10103
ENCODING 1110
SWIDTH 520 0
DWIDTH 11 0
BBX 6 13 2 0
BITMAP
20
20
00
00
F0
10
10
10
10
10
10
10
FC
ENDCHAR
STARTCHAR afii10104
ENCODING 1111
SWIDTH 520 0
DWIDTH 11 0
BBX 6 13 2 0
BITMAP
C8
00
00
00
F0
10
10
10
10
10
10
10
FC
ENDCHAR
STARTCHAR afii10105
ENCODING 1112
SWIDTH 520 0
DWIDTH 11 0
BBX 7 17 0 -4
BITMAP
02
02
00
00
0E
02
02
02
02
02
02
02
02
02
82
46
3C
ENDCHAR
STARTCHAR afii10106
ENCODING 1113
SWIDTH 520 0
DWIDTH 11 0
BBX 10 9 -1 0
BITMAP
3C00
2400
2400
2400
2780
2440
2440
2440
C780
ENDCHAR
STARTCHAR afii10107
ENCODING 1114
SWIDTH 520 0
DWIDTH 11 0
BBX 8 9 1 0
BITMAP
90
90
90
90
FE
91
91
91
9E
ENDCHAR
STARTCHAR afii10108
ENCODING 1115
SWIDTH 520 0
DWIDTH 11 0
BBX 11 13 -2 0
BITMAP
2000
2000
F800
2000
27C0
2860
3020
2020
2020
2020
2020
2020
2020
ENDCHAR
STARTCHAR afii10109
ENCODING 1116
SWIDTH 520 0
DWIDTH 11 0
BBX 8 13 1 0
BITMAP
04
18
60
00
83
84
88
B0
F0
D8
8C
86
83
ENDCHAR
STARTCHAR afii10110
ENCODING 1118
SWIDTH 520 0
DWIDTH 11 0
BBX 9 17 0 -4
BITMAP
2200
1C00
0000
0000
8080
C180
4100
6300
2200
3200
3600
1400
1C00
0800
1800
1000
F000
ENDCHAR
STARTCHAR afii10193
ENCODING 1119
SWIDTH 520 0
DWIDTH 11 0
BBX 7 12 1 -3
BITMAP
82
82
82
82
82
82
82
82
FE
10
10
10
ENDCHAR
STARTCHAR afii10050
ENCODING 1168
SWIDTH 520 0
DWIDTH 11 0
BBX 9 15 0 0
BITMAP
0080
0080
FF80
8000
8000
8000
8000
8000
8000
8000
8000
8000
8000
8000
8000
ENDCHAR
STARTCHAR afii10098
ENCODING 1169
SWIDTH 520 0
DWIDTH 11 0
BBX 9 11 0 0
BITMAP
0080
0080
FF80
8000
8000
8000
8000
8000
8000
8000
8000
ENDCHAR
STARTCHAR uni1E02
ENCODING 7682
SWIDTH 520 0
DWIDTH 10 0
BBX 7 17 1 0
BITMAP
10
10
00
00
FC
86
82
82
82
84
F8
84
82
82
82
86
FC
ENDCHAR
STARTCHAR uni1E03
ENCODING 7683
SWIDTH 520 0
DWIDTH 11 0
BBX 9 17 0 0
BITMAP
0800
0800
0000
0000
8000
8000
8000
8000
BE00
C100
8080
8080
8080
8080
8080
C100
BE00
ENDCHAR
STARTCHAR uni1E0A
ENCODING 7690
SWIDTH 520 0
DWIDTH 11 0
BBX 10 17 0 0
BITMAP
0800
0800
0000
0000
FE00
8100
8080
8040
8040
8040
8040
8040
8040
8040
8080
8100
FE00
ENDCHAR
STARTCHAR uni1E0B
ENCODING 7691
SWIDTH 520 0
DWIDTH 11 0
BBX 9 17 0 0
BITMAP
0800
0800
0000
0000
0380
0080
0080
0080
1E80
6180
8080
8080
8080
8080
8080
4180
3E80
ENDCHAR
STARTCHAR uni1E1E
ENCODING 7710
SWIDTH 520 0
DWIDTH 11 0
BBX 8 17 1 0
BITMAP
10
10
00
00
FF
80
80
80
80
80
FC
80
80
80
80
80
80
ENDCHAR
STARTCHAR uni1E1F
ENCODING 7711
SWIDTH 520 0
DWIDTH 11 0
BBX 7 17 2 0
BITMAP
20
20
00
00
1E
30
20
20
FE
20
20
20
20
20
20
20
F8
ENDCHAR
STARTCHAR uni1E40
ENCODING 7744
SWIDTH 520 0
DWIDTH 11 0
BBX 9 17 0 0
BITMAP
0800
0800
0000
0000
C180
C180
E380
A280
B680
B680
9480
9C80
8880
8080
8080
8080
8080
ENDCHAR
STARTCHAR uni1E41
ENCODING 7745
SWIDTH 520 0
DWIDTH 11 0
BBX 9 13 0 0
BITMAP
0800
0800
0000
0000
BB00
CC80
8880
8880
8880
8880
8880
8880
8880
ENDCHAR
STARTCHAR uni1E56
ENCODING 7766
SWIDTH 520 0
DWIDTH 11 0
BBX 9 17 0 0
BITMAP
0800
0800
0000
0000
FE00
8100
8080
8080
8080
8100
FE00
8000
8000
8000
8000
8000
8000
ENDCHAR
STARTCHAR uni1E57
ENCODING 7767
SWIDTH 520 0
DWIDTH 11 0
BBX 9 17 0 -4
BITMAP
0800
0800
0000
0000
BE00
C100
8080
8080
8080
8080
8080
C100
BE00
8000
8000
8000
8000
ENDCHAR
STARTCHAR uni1E60
ENCODING 7776
SWIDTH 520 0
DWIDTH 10 0
BBX 8 17 0 0
BITMAP
08
08
00
00
3D
43
81
81
80
60
18
06
01
81
81
C2
BC
ENDCHAR
STARTCHAR uni1E61
ENCODING 7777
SWIDTH 520 0
DWIDTH 11 0
BBX 9 13 0 0
BITMAP
0800
0800
0000
0000
7E00
8300
8000
C000
3E00
0180
0080
4080
3F00
ENDCHAR
STARTCHAR uni1E6A
ENCODING 7786
SWIDTH 520 0
DWIDTH 11 0
BBX 9 17 0 0
BITMAP
0800
0800
0000
0000
FF80
8880
8880
8880
0800
0800
0800
0800
0800
0800
0800
0800
3E00
ENDCHAR
STARTCHAR uni1E6B
ENCODING 7787
SWIDTH 520 0
DWIDTH 11 0
BBX 9 17 0 0
BITMAP
0800
0800
0000
0000
2000
2000
2000
2000
FE00
2000
2000
2000
2000
2000
2080
3100
1E00
ENDCHAR
STARTCHAR Wgrave
ENCODING 7808
SWIDTH 520 0
DWIDTH 11 0
BBX 11 17 -1 0
BITMAP
0800
1C00
0300
0000
C060
4040
4040
4040
6440
64C0
2EC0
2A80
2A80
2A80
3A80
3980
1180
ENDCHAR
STARTCHAR wgrave
ENCODING 7809
SWIDTH 520 0
DWIDTH 11 0
BBX 9 13 0 0
BITMAP
1000
3800
0600
0000
8880
8C80
DC80
D580
5500
5500
5700
6300
2300
ENDCHAR
STARTCHAR Wacute
ENCODING 7810
SWIDTH 520 0
DWIDTH 11 0
BBX 11 17 -1 0
BITMAP
0100
0600
1800
0000
C060
4040
4040
4040
6440
64C0
2EC0
2A80
2A80
2A80
3A80
3980
1180
ENDCHAR
STARTCHAR wacute
ENCODING 7811
SWIDTH 520 0
DWIDTH 11 0
BBX 9 13 0 0
BITMAP
0200
0C00
3000
0000
8880
8C80
DC80
D580
5500
5500
5700
6300
2300
ENDCHAR
STARTCHAR Wdieresis
ENCODING 7812
SWIDTH 520 0
DWIDTH 11 0
BBX 11 17 -1 0
BITMAP
1900
0000
0000
0000
C060
4040
4040
4040
6440
64C0
2EC0
2A80
2A80
2A80
3A80
3980
1180
ENDCHAR
STARTCHAR wdieresis
ENCODING 7813
SWIDTH 520 0
DWIDTH 11 0
BBX 9 13 0 0
BITMAP
3200
0000
0000
0000
8880
8C80
DC80
D580
5500
5500
5700
6300
2300
ENDCHAR
STARTCHAR Ygrave
ENCODING 7922
SWIDTH 520 0
DWIDTH 11 0
BBX 9 17 0 0
BITMAP
1000
3800
0600
0000
F780
6300
2200
2200
1400
1400
0800
0800
0800
0800
0800
0800
3E00
ENDCHAR
STARTCHAR ygrave
ENCODING 7923
SWIDTH 520 0
DWIDTH 11 0
BBX 9 17 0 -4
BITMAP
1000
3800
0600
0000
8080
C180
4100
6300
2200
3200
3600
1400
1C00
0800
1800
1000
F000
ENDCHAR
STARTCHAR endash
ENCODING 8211
SWIDTH 520 0
DWIDTH 11 0
BBX 9 1 0 4
BITMAP
FF80
ENDCHAR
STARTCHAR emdash
ENCODING 8212
SWIDTH 520 0
DWIDTH 11 0
BBX 11 1 -1 4
BITMAP
FFE0
ENDCHAR
STARTCHAR afii00208
ENCODING 8213
SWIDTH 520 0
DWIDTH 11 0
BBX 9 1 0 4
BITMAP
FF80
ENDCHAR
STARTCHAR quoteleft
ENCODING 8216
SWIDTH 520 0
DWIDTH 11 0
BBX 4 5 4 8
BITMAP
30
C0
80
80
F0
ENDCHAR
STARTCHAR quoteright
ENCODING 8217
SWIDTH 520 0
DWIDTH 11 0
BBX 4 6 1 7
BITMAP
F0
10
10
10
20
C0
ENDCHAR
STARTCHAR quotesinglbase
ENCODING 8218
SWIDTH 520 0
DWIDTH 11 0
BBX 4 5 5 -4
BITMAP
F0
10
10
30
C0
ENDCHAR
STARTCHAR quotedblleft
ENCODING 8220
SWIDTH 520 0
DWIDTH 11 0
BBX 9 5 1 8
BITMAP
3180
C600
8400
8400
F780
ENDCHAR
STARTCHAR quotedblright
ENCODING 8221
SWIDTH 520 0
DWIDTH 11 0
BBX 9 6 0 7
BITMAP
F780
1080
1080
1080
2100
C600
ENDCHAR
STARTCHAR quotedblbase
ENCODING 8222
SWIDTH 520 0
DWIDTH 11 0
BBX 9 5 0 -4
BITMAP
F780
1180
1180
3380
C600
ENDCHAR
STARTCHAR dagger
ENCODING 8224
SWIDTH 520 0
DWIDTH 11 0
BBX 5 9 2 4
BITMAP
20
20
F8
20
20
20
20
20
20
ENDCHAR
STARTCHAR daggerdbl
ENCODING 8225
SWIDTH 520 0
DWIDTH 11 0
BBX 7 11 1 2
BITMAP
10
10
FE
10
10
10
10
10
FE
10
10
ENDCHAR
STARTCHAR bullet
ENCODING 8226
SWIDTH 520 0
DWIDTH 11 0
BBX 7 7 2 2
BITMAP
38
FC
FE
FE
FE
FC
38
ENDCHAR
STARTCHAR ellipsis
ENCODING 8230
SWIDTH 520 0
DWIDTH 11 0
BBX 9 1 0 0
BITMAP
C980
ENDCHAR
STARTCHAR perthousand
ENCODING 8240
SWIDTH 520 0
DWIDTH 12 0
BBX 11 13 0 0
BITMAP
6400
9400
9C00
B800
6800
1000
1000
2000
2CC0
5320
5320
D320
8CC0
ENDCHAR
STARTCHAR guilsinglleft
ENCODING 8249
SWIDTH 520 0
DWIDTH 11 0
BBX 4 7 2 1
BITMAP
10
20
40
80
40
20
10
ENDCHAR
STARTCHAR guilsinglright
ENCODING 8250
SWIDTH 520 0
DWIDTH 11 0
BBX 4 7 3 1
BITMAP
80
40
20
10
20
40
80
ENDCHAR
STARTCHAR fraction
ENCODING 8260
SWIDTH 520 0
DWIDTH 11 0
BBX 9 13 0 0
BITMAP
0080
0180
0100
0200
0600
0400
0800
1800
1000
2000
6000
4000
8000
ENDCHAR
STARTCHAR Euro
ENCODING 8364
SWIDTH 520 0
DWIDTH 11 0
BBX 9 13 0 0
BITMAP
0E00
1100
3080
2100
2000
F800
6000
6000
F800
2100
2080
1100
0E00
ENDCHAR
STARTCHAR afii61352
ENCODING 8470
SWIDTH 520 0
DWIDTH 12 0
BBX 11 13 0 0
BITMAP
C800
C800
E800
E800
E9C0
AA20
AA20
BA20
BA20
B9C0
9800
9800
9BE0
ENDCHAR
STARTCHAR trademark
ENCODING 8482
SWIDTH 520 0
DWIDTH 11 0
BBX 11 6 0 7
BITMAP
FA60
2360
2360
22A0
22A0
2220
ENDCHAR
STARTCHAR Omega
ENCODING 8486
SWIDTH 520 0
DWIDTH 11 0
BBX 9 13 0 0
BITMAP
1C00
6300
4100
8080
8080
8080
8080
8080
4080
6100
3300
1200
F380
ENDCHAR
STARTCHAR partialdiff
ENCODING 8706
SWIDTH 520 0
DWIDTH 11 0
BBX 9 13 0 0
BITMAP
3000
1C00
0600
0300
0100
1F80
3080
4080
8080
8080
8100
4300
3C00
ENDCHAR
STARTCHAR Delta
ENCODING 8710
SWIDTH 520 0
DWIDTH 11 0
BBX 11 13 -1 0
BITMAP
0600
0E00
0A00
0B00
1B00
1100
1180
3180
2080
20C0
60C0
4040
FFE0
ENDCHAR
STARTCHAR product
ENCODING 8719
SWIDTH 520 0
DWIDTH 11 0
BBX 9 13 0 0
BITMAP
FF80
2200
2200
2200
2200
2200
2200
2200
2200
2200
2200
2200
2200
ENDCHAR
STARTCHAR summation
ENCODING 8721
SWIDTH 520 0
DWIDTH 11 0
BBX 8 13 1 0
BITMAP
FF
C1
41
61
30
30
18
30
30
61
41
C1
FF
ENDCHAR
STARTCHAR minus
ENCODING 8722
SWIDTH 520 0
DWIDTH 11 0
BBX 9 1 0 4
BITMAP
FF80
ENDCHAR
STARTCHAR radical
ENCODING 8730
SWIDTH 520 0
DWIDTH 11 0
BBX 9 11 0 0
BITMAP
0780
0400
0400
0400
C800
4800
4800
5000
3000
3000
3000
ENDCHAR
STARTCHAR infinity
ENCODING 8734
SWIDTH 520 0
DWIDTH 11 0
BBX 9 5 0 2
BITMAP
7300
9C80
8880
9C80
7300
ENDCHAR
STARTCHAR integral
ENCODING 8747
SWIDTH 520 0
DWIDTH 11 0
BBX 9 21 0 -4
BITMAP
0780
0400
0800
0800
0800
0800
0800
0800
0800
0800
0800
0800
0800
0800
0800
0800
0800
0800
0800
1800
F000
ENDCHAR
STARTCHAR approxequal
ENCODING 8776
SWIDTH 520 0
DWIDTH 11 0
BBX 9 7 0 1
BITMAP
3080
F980
8700
0000
7080
CF80
8600
ENDCHAR
STARTCHAR notequal
ENCODING 8800
SWIDTH 520 0
DWIDTH 11 0
BBX 9 9 0 0
BITMAP
0200
0200
FF80
0400
0800
1800
FF80
3000
2000
ENDCHAR
STARTCHAR lessequal
ENCODING 8804
SWIDTH 520 0
DWIDTH 11 0
BBX 7 12 2 -2
BITMAP
08
1C
30
60
C0
C0
60
30
18
0C
00
FE
ENDCHAR
STARTCHAR greaterequal
ENCODING 8805
SWIDTH 520 0
DWIDTH 11 0
BBX 7 12 2 -2
BITMAP
40
20
10
08
04
06
08
10
20
40
00
FE
ENDCHAR
STARTCHAR uni2303
ENCODING 8963
SWIDTH 520 0
DWIDTH 11 0
BBX 10 6 0 0
BITMAP
0800
1C00
3600
6300
C180
80C0
ENDCHAR
STARTCHAR uni2318
ENCODING 8984
SWIDTH 520 0
DWIDTH 11 0
BBX 9 9 1 1
BITMAP
E380
A280
FF80
2200
2200
2200
FF80
A280
E380
ENDCHAR
STARTCHAR uni2324
ENCODING 8996
SWIDTH 520 0
DWIDTH 11 0
BBX 10 7 0 0
BITMAP
E380
0800
1C00
3600
6300
C180
80C0
ENDCHAR
STARTCHAR optionkey
ENCODING 8997
SWIDTH 520 0
DWIDTH 11 0
BBX 11 7 0 0
BITMAP
F1E0
1800
0800
0400
0600
0300
01E0
ENDCHAR
STARTCHAR erasetotheright
ENCODING 8998
SWIDTH 520 0
DWIDTH 11 0
BBX 10 13 1 0
BITMAP
F000
8800
8400
8200
8100
AC80
9040
A880
CD00
8200
8400
8800
F000
ENDCHAR
STARTCHAR uni237d
ENCODING 9085
SWIDTH 520 0
DWIDTH 11 0
BBX 11 3 0 0
BITMAP
E1E0
2100
3F00
ENDCHAR
STARTCHAR uni2388
ENCODING 9096
SWIDTH 520 0
DWIDTH 11 0
BBX 10 9 2 0
BITMAP
F100
E280
B040
9840
0840
4440
4080
2080
1F00
ENDCHAR
STARTCHAR uni23ce
ENCODING 9166
SWIDTH 520 0
DWIDTH 11 0
BBX 11 9 0 0
BITMAP
03E0
0020
0020
2060
3040
6080
FF00
6000
1000
ENDCHAR
STARTCHAR uni2423
ENCODING 9251
SWIDTH 520 0
DWIDTH 11 0
BBX 7 3 1 0
BITMAP
82
82
FE
ENDCHAR
STARTCHAR SF100000
ENCODING 9472
SWIDTH 520 0
DWIDTH 11 0
BBX 11 1 0 6
BITMAP
FFE0
ENDCHAR
STARTCHAR SF110000
ENCODING 9474
SWIDTH 520 0
DWIDTH 11 0
BBX 1 20 4 -4
BITMAP
80
80
80
80
80
80
80
80
80
80
80
80
80
80
80
80
80
80
80
80
ENDCHAR
STARTCHAR SF010000
ENCODING 9484
SWIDTH 520 0
DWIDTH 11 0
BBX 7 11 4 -4
BITMAP
FE
80
80
80
80
80
80
80
80
80
80
ENDCHAR
STARTCHAR SF030000
ENCODING 9488
SWIDTH 520 0
DWIDTH 11 0
BBX 5 11 0 -4
BITMAP
F8
08
08
08
08
08
08
08
08
08
08
ENDCHAR
STARTCHAR SF020000
ENCODING 9492
SWIDTH 520 0
DWIDTH 11 0
BBX 7 10 4 6
BITMAP
80
80
80
80
80
80
80
80
80
FE
ENDCHAR
STARTCHAR SF040000
ENCODING 9496
SWIDTH 520 0
DWIDTH 11 0
BBX 5 10 0 6
BITMAP
08
08
08
08
08
08
08
08
08
F8
ENDCHAR
STARTCHAR SF080000
ENCODING 9500
SWIDTH 520 0
DWIDTH 11 0
BBX 7 20 4 -4
BITMAP
80
80
80
80
80
80
80
80
80
FE
80
80
80
80
80
80
80
80
80
80
ENDCHAR
STARTCHAR SF090000
ENCODING 9508
SWIDTH 520 0
DWIDTH 11 0
BBX 5 20 0 -4
BITMAP
08
08
08
08
08
08
08
08
08
F8
08
08
08
08
08
08
08
08
08
08
ENDCHAR
STARTCHAR SF060000
ENCODING 9516
SWIDTH 520 0
DWIDTH 11 0
BBX 11 11 0 -4
BITMAP
FFE0
0800
0800
0800
0800
0800
0800
0800
0800
0800
0800
ENDCHAR
STARTCHAR SF070000
ENCODING 9524
SWIDTH 520 0
DWIDTH 11 0
BBX 11 10 0 6
BITMAP
0800
0800
0800
0800
0800
0800
0800
0800
0800
FFE0
ENDCHAR
STARTCHAR SF050000
ENCODING 9532
SWIDTH 520 0
DWIDTH 11 0
BBX 11 20 0 -4
BITMAP
0800
0800
0800
0800
0800
0800
0800
0800
0800
FFE0
0800
0800
0800
0800
0800
0800
0800
0800
0800
0800
ENDCHAR
STARTCHAR SF430000
ENCODING 9552
SWIDTH 520 0
DWIDTH 11 0
BBX 11 5 0 4
BITMAP
FFE0
0000
0000
0000
FFE0
ENDCHAR
STARTCHAR SF240000
ENCODING 9553
SWIDTH 520 0
DWIDTH 11 0
BBX 5 20 2 -4
BITMAP
88
88
88
88
88
88
88
88
88
88
88
88
88
88
88
88
88
88
88
88
ENDCHAR
STARTCHAR SF510000
ENCODING 9554
SWIDTH 520 0
DWIDTH 11 0
BBX 8 13 4 -4
BITMAP
0F
08
08
08
FF
80
80
80
80
80
80
80
80
ENDCHAR
STARTCHAR SF520000
ENCODING 9555
SWIDTH 520 0
DWIDTH 11 0
BBX 9 11 2 -4
BITMAP
0F80
0800
0800
0800
F800
8800
8800
8800
8800
8800
8800
ENDCHAR
STARTCHAR SF390000
ENCODING 9556
SWIDTH 520 0
DWIDTH 11 0
BBX 9 13 2 -4
BITMAP
FF80
8000
8000
8000
8F80
8800
8800
8800
8800
8800
8800
8800
8800
ENDCHAR
STARTCHAR SF220000
ENCODING 9557
SWIDTH 520 0
DWIDTH 11 0
BBX 5 13 0 -4
BITMAP
F0
10
10
10
F8
08
08
08
08
08
08
08
08
ENDCHAR
STARTCHAR SF210000
ENCODING 9558
SWIDTH 520 0
DWIDTH 11 0
BBX 7 11 0 -4
BITMAP
E0
20
20
20
3E
22
22
22
22
22
22
ENDCHAR
STARTCHAR SF250000
ENCODING 9559
SWIDTH 520 0
DWIDTH 11 0
BBX 7 13 0 -4
BITMAP
FE
02
02
02
F2
12
12
12
12
12
12
12
12
ENDCHAR
STARTCHAR SF500000
ENCODING 9560
SWIDTH 520 0
DWIDTH 11 0
BBX 8 12 4 4
BITMAP
80
80
80
80
80
80
80
FF
08
08
08
0F
ENDCHAR
STARTCHAR SF490000
ENCODING 9561
SWIDTH 520 0
DWIDTH 11 0
BBX 9 10 2 6
BITMAP
8800
8800
8800
8800
8800
F800
0800
0800
0800
0F80
ENDCHAR
STARTCHAR SF380000
ENCODING 9562
SWIDTH 520 0
DWIDTH 11 0
BBX 9 12 2 4
BITMAP
8800
8800
8800
8800
8800
8800
8800
8F80
8000
8000
8000
FF80
ENDCHAR
STARTCHAR SF280000
ENCODING 9563
SWIDTH 520 0
DWIDTH 11 0
BBX 5 12 0 4
BITMAP
08
08
08
08
08
08
08
F8
80
80
80
80
ENDCHAR
STARTCHAR SF270000
ENCODING 9564
SWIDTH 520 0
DWIDTH 11 0
BBX 7 10 0 6
BITMAP
22
22
22
22
22
3E
20
20
20
E0
ENDCHAR
STARTCHAR SF260000
ENCODING 9565
SWIDTH 520 0
DWIDTH 11 0
BBX 7 12 0 4
BITMAP
12
12
12
12
12
12
12
F2
02
02
02
FE
ENDCHAR
STARTCHAR SF360000
ENCODING 9566
SWIDTH 520 0
DWIDTH 11 0
BBX 7 20 4 -4
BITMAP
80
80
80
80
80
80
80
FE
00
00
00
FE
80
80
80
80
80
80
80
80
ENDCHAR
STARTCHAR SF370000
ENCODING 9567
SWIDTH 520 0
DWIDTH 11 0
BBX 9 20 2 -4
BITMAP
8800
8800
8800
8800
8800
8800
8800
8800
8800
8F80
8800
8800
8800
8800
8800
8800
8800
8800
8800
8800
ENDCHAR
STARTCHAR SF420000
ENCODING 9568
SWIDTH 520 0
DWIDTH 11 0
BBX 9 20 2 -4
BITMAP
8800
8800
8800
8800
8800
8800
8800
8F80
8000
8000
8000
8F80
8800
8800
8800
8800
8800
8800
8800
8800
ENDCHAR
STARTCHAR SF190000
ENCODING 9569
SWIDTH 520 0
DWIDTH 11 0
BBX 5 20 0 -4
BITMAP
08
08
08
08
08
08
08
F8
00
00
00
F8
08
08
08
08
08
08
08
08
ENDCHAR
STARTCHAR SF200000
ENCODING 9570
SWIDTH 520 0
DWIDTH 11 0
BBX 7 20 0 -4
BITMAP
22
22
22
22
22
22
22
22
22
E2
22
22
22
22
22
22
22
22
22
22
ENDCHAR
STARTCHAR SF230000
ENCODING 9571
SWIDTH 520 0
DWIDTH 11 0
BBX 7 20 0 -4
BITMAP
12
12
12
12
12
12
12
F2
02
02
02
F2
12
12
12
12
12
12
12
12
ENDCHAR
STARTCHAR SF470000
ENCODING 9572
SWIDTH 520 0
DWIDTH 11 0
BBX 11 13 0 -4
BITMAP
FFE0
0000
0000
0000
FFE0
0800
0800
0800
0800
0800
0800
0800
0800
ENDCHAR
STARTCHAR SF480000
ENCODING 9573
SWIDTH 520 0
DWIDTH 11 0
BBX 11 11 0 -4
BITMAP
E3E0
2200
2200
2200
2200
2200
2200
2200
2200
2200
2200
ENDCHAR
STARTCHAR SF410000
ENCODING 9574
SWIDTH 520 0
DWIDTH 11 0
BBX 11 13 0 -4
BITMAP
FFE0
0000
0000
0000
F3E0
1200
1200
1200
1200
1200
1200
1200
1200
ENDCHAR
STARTCHAR SF450000
ENCODING 9575
SWIDTH 520 0
DWIDTH 11 0
BBX 11 12 0 4
BITMAP
0800
0800
0800
0800
0800
0800
0800
FFE0
0000
0000
0000
FFE0
ENDCHAR
STARTCHAR SF460000
ENCODING 9576
SWIDTH 520 0
DWIDTH 11 0
BBX 11 10 0 6
BITMAP
2200
2200
2200
2200
2200
2200
2200
2200
2200
E3E0
ENDCHAR
STARTCHAR SF400000
ENCODING 9577
SWIDTH 520 0
DWIDTH 11 0
BBX 11 12 0 4
BITMAP
1200
1200
1200
1200
1200
1200
1200
F3E0
0000
0000
0000
FFE0
ENDCHAR
STARTCHAR SF540000
ENCODING 9578
SWIDTH 520 0
DWIDTH 11 0
BBX 11 20 0 -4
BITMAP
0800
0800
0800
0800
0800
0800
0800
FFE0
0000
0000
0000
FFE0
0800
0800
0800
0800
0800
0800
0800
0800
ENDCHAR
STARTCHAR SF530000
ENCODING 9579
SWIDTH 520 0
DWIDTH 11 0
BBX 11 20 0 -4
BITMAP
2200
2200
2200
2200
2200
2200
2200
2200
2200
E3E0
2200
2200
2200
2200
2200
2200
2200
2200
2200
2200
ENDCHAR
STARTCHAR SF440000
ENCODING 9580
SWIDTH 520 0
DWIDTH 11 0
BBX 11 20 0 -4
BITMAP
1200
1200
1200
1200
1200
1200
1200
F3E0
0000
0000
0000
F3E0
1200
1200
1200
1200
1200
1200
1200
1200
ENDCHAR
STARTCHAR blackdiamond
ENCODING 9670
SWIDTH 520 0
DWIDTH 11 0
BBX 9 9 0 0
BITMAP
0800
1C00
3E00
7F00
FF80
7F00
3E00
1C00
0800
ENDCHAR
STARTCHAR lozenge
ENCODING 9674
SWIDTH 520 0
DWIDTH 11 0
BBX 9 9 0 0
BITMAP
0800
1400
2200
4100
8080
4100
2200
1400
0800
ENDCHAR
STARTCHAR checkmark
ENCODING 10003
SWIDTH 520 0
DWIDTH 11 0
BBX 11 7 0 0
BITMAP
0020
00C0
8180
4300
2400
3800
1000
ENDCHAR
STARTCHAR shift
ENCODING 57344
SWIDTH 520 0
DWIDTH 11 0
BBX 9 9 0 0
BITMAP
0800
1C00
3200
4100
8080
E380
2200
2200
3E00
ENDCHAR
STARTCHAR shiftlock
ENCODING 57345
SWIDTH 520 0
DWIDTH 11 0
BBX 9 9 0 0
BITMAP
0800
1C00
2200
6300
E380
FF80
3E00
3E00
3E00
ENDCHAR
STARTCHAR verticaltab
ENCODING 57346
SWIDTH 520 0
DWIDTH 11 0
BBX 10 9 0 0
BITMAP
F1C0
0040
0040
0240
0640
0C40
DFC0
0400
0200
ENDCHAR
STARTCHAR copy
ENCODING 57347
SWIDTH 520 0
DWIDTH 11 0
BBX 9 13 1 0
BITMAP
FC00
8E00
8B00
8980
8F80
8080
9080
9080
FC80
9080
9080
8080
FF80
ENDCHAR
STARTCHAR back
ENCODING 57348
SWIDTH 520 0
DWIDTH 11 0
BBX 10 10 1 0
BITMAP
0100
8300
8600
8C00
9800
BFC0
8800
8400
8200
8100
ENDCHAR
STARTCHAR endtab
ENCODING 57349
SWIDTH 520 0
DWIDTH 11 0
BBX 11 9 0 0
BITMAP
F800
8000
8000
C100
4180
20C0
1FE0
00C0
0100
ENDCHAR
STARTCHAR insert
ENCODING 57350
SWIDTH 520 0
DWIDTH 11 0
BBX 10 9 1 0
BITMAP
E3C0
8000
8000
9000
9800
8C00
FEC0
0800
1000
ENDCHAR
STARTCHAR tab
ENCODING 57351
SWIDTH 520 0
DWIDTH 11 0
BBX 10 10 0 0
BITMAP
2000
3040
1840
0C40
0640
FF40
0440
0840
1040
2040
ENDCHAR
STARTCHAR uniE0B0
ENCODING 57520
SWIDTH 520 0
DWIDTH 11 0
BBX 11 22 0 -5
BITMAP
8000
8000
C000
E000
F800
FC00
FE00
FF00
FF80
FFC0
FFE0
FFC0
FF80
FF00
FE00
FC00
F800
F000
E000
C000
C000
8000
ENDCHAR
STARTCHAR uniE0B2
ENCODING 57522
SWIDTH 520 0
DWIDTH 11 0
BBX 12 22 0 -5
BITMAP
0030
0070
00F0
01F0
03F0
07F0
0FF0
1FF0
3FF0
7FF0
FFF0
FFF0
7FF0
3FF0
1FF0
0FF0
07F0
03F0
01F0
00F0
0070
0030
ENDCHAR
STARTCHAR uniE0B8
ENCODING 57528
SWIDTH 520 0
DWIDTH 11 0
BBX 11 22 0 -5
BITMAP
8000
8000
8000
C000
C000
E000
E000
F000
F000
F800
F800
FC00
FC00
FE00
FE00
FF00
FF00
FF80
FF80
FFC0
FFC0
FFE0
ENDCHAR
STARTCHAR uniE0BA
ENCODING 57530
SWIDTH 520 0
DWIDTH 11 0
BBX 12 22 0 -5
BITMAP
0030
0030
0070
0070
00F0
00F0
01F0
01F0
03F0
03F0
07F0
07F0
0FF0
0FF0
1FF0
1FF0
3FF0
3FF0
7FF0
7FF0
FFF0
FFF0
ENDCHAR
STARTCHAR uniE0BC
ENCODING 57532
SWIDTH 520 0
DWIDTH 11 0
BBX 11 22 0 -5
BITMAP
FFE0
FFC0
FFC0
FF80
FF80
FF00
FF00
FE00
FE00
FC00
FC00
F800
F800
F000
F000
E000
E000
C000
C000
8000
8000
8000
ENDCHAR
STARTCHAR uniE0BE
ENCODING 57534
SWIDTH 520 0
DWIDTH 11 0
BBX 12 22 0 -5
BITMAP
FFF0
FFF0
7FF0
7FF0
3FF0
3FF0
1FF0
1FF0
0FF0
0FF0
07F0
07F0
03F0
03F0
01F0
01F0
00F0
00F0
0070
0070
0030
0030
ENDCHAR
STARTCHAR commaaccent
ENCODING 63171
SWIDTH 520 0
DWIDTH 11 0
BBX 3 3 3 -4
BITMAP
60
C0
C0
ENDCHAR
STARTCHAR apple
ENCODING 63743
SWIDTH 520 0
DWIDTH 11 0
BBX 11 13 0 0
BITMAP
0100
0300
0600
7FC0
7FE0
FFC0
FF80
FF80
FFC0
FFE0
7FE0
7FC0
3B80
ENDCHAR
STARTCHAR appleopen
ENCODING 63744
SWIDTH 520 0
DWIDTH 11 0
BBX 11 13 0 0
BITMAP
0100
0300
0600
3FC0
4040
8080
8080
8080
8040
8060
4040
6C40
3B80
ENDCHAR
STARTCHAR fi
ENCODING 64257
SWIDTH 520 0
DWIDTH 11 0
BBX 11 13 0 0
BITMAP
1E00
3000
2000
2000
FF80
2080
2080
2080
2080
2080
2080
2080
FFE0
ENDCHAR
STARTCHAR fl
ENCODING 64258
SWIDTH 520 0
DWIDTH 11 0
BBX 11 13 0 0
BITMAP
0F80
1080
2080
2080
F880
2080
2080
2080
2080
2080
2080
2080
FFE0
ENDCHAR
STARTCHAR .notdef
ENCODING -1
SWIDTH 520 0
DWIDTH 11 0
BBX 9 13 0 0
BITMAP
FF80
8080
8080
8080
8080
8080
8080
8080
8080
8080
8080
8080
FF80
ENDCHAR
ENDFONT
